<svg viewBox="0 0 24 25" xmlns="http://www.w3.org/2000/svg">
  <path fill-rule="evenodd" clip-rule="evenodd" d="M19.503 6.6c.444.262.997.718.997 1.423v9c0 .706-.553 1.162-.997 1.425-.494.291-1.159.528-1.914.717-1.523.381-3.587.608-5.839.608-2.252 0-4.316-.227-5.839-.608-.755-.189-1.42-.425-1.914-.717-.444-.263-.997-.72-.997-1.425v-9c0-.705.553-1.161.997-1.424.494-.292 1.159-.528 1.914-.717 1.523-.381 3.587-.609 5.839-.609 2.252 0 4.316.228 5.839.609.755.189 1.42.425 1.914.717zM4.566 8.022c.042.035.103.08.194.133.316.187.823.381 1.515.554 1.373.343 3.309.563 5.475.563 2.166 0 4.102-.22 5.475-.563.692-.173 1.199-.367 1.515-.554.09-.053.152-.098.194-.133a1.513 1.513 0 0 0-.194-.132c-.316-.187-.823-.381-1.515-.554-1.373-.343-3.309-.564-5.475-.564-2.166 0-4.102.22-5.475.564-.692.173-1.199.367-1.515.554-.09.053-.152.098-.194.132zM4.5 13.366v1.03c1.14.272 2.419.475 3.75.607v3.064c.32.04.654.075 1 .104V15.09a38.54 38.54 0 0 0 2.585.097c.815.003 1.626-.02 2.415-.07v3.055c.346-.029.68-.064 1-.104v-3.032c1.397-.136 2.688-.366 3.75-.7v-1.053c-1 .352-2.298.602-3.75.748v-3.452c-.323.038-.657.07-1 .098v3.438a34.48 34.48 0 0 1-2.41.072 37.536 37.536 0 0 1-2.59-.1v-3.41c-.343-.027-.677-.06-1-.098v3.42c-1.352-.138-2.635-.35-3.75-.632z"/>
</svg>
