<svg viewBox="0 0 24 25" xmlns="http://www.w3.org/2000/svg">
  <path d="M14.824 6.067c-.556-.726-1.521-1.681-2.698-2.265-1.23-.61-2.782-.847-4.274.148a.75.75 0 0 0 .269 1.36c.271.054.652.236.959.51.195.175.317.346.381.5A9.957 9.957 0 0 0 6.69 7.644c-2.23 1.55-3.883 4.22-3.67 8.466l.003.045c.056.505.279 1.099.569 1.67a10.44 10.44 0 0 0 1.154 1.78c.458.569.992 1.108 1.57 1.512.568.398 1.24.705 1.952.705 1.517 0 2.317-1.314 2.597-2.294.147-.517.199-1.077.109-1.549a1.63 1.63 0 0 0-.32-.73 1.13 1.13 0 0 0-.886-.427c-.21 0-.438.043-.63.084-.133.028-.285.064-.436.1l-.216.052c-.462.107-.942.204-1.41.215-.464.01-.868-.066-1.202-.262-.277-.164-.56-.44-.792-.937.182-.353.548-.85 1.096-1.294.669-.542 1.549-.958 2.59-.958.503 0 1.265.18 2.276.466.261.074.537.155.823.238a54.73 54.73 0 0 0 2.387.657 7.588 7.588 0 0 1-.242-.43c-1.636-3.14-.39-6.205 1.395-7.9.163-.155.332-.3.506-.433a8.258 8.258 0 0 0-1.088-.354z"/>
  <path fill-rule="evenodd" clip-rule="evenodd" d="M16.94 6.924a5.18 5.18 0 0 0-.846.656c-1.55 1.47-2.574 4.067-1.196 6.712.205.395.465.794.789 1.194a11.97 11.97 0 0 0 2.22.194c1.175-.02 2.342-.28 3.31-1.007a.75.75 0 0 0 .293-.706c-.182-1.274-.8-3.176-2.074-4.827a8.662 8.662 0 0 0-2.496-2.216zm1.327 4.15a.5.5 0 1 1-1 0 .5.5 0 0 1 1 0z"/>
</svg>
