<svg viewBox="0 0 24 25" xmlns="http://www.w3.org/2000/svg">
  <path fill-rule="evenodd" clip-rule="evenodd" d="M9.378 4.319a.75.75 0 0 0-.567.022l-5.5 2.5a.75.75 0 0 0-.44.682v.552a3.58 3.58 0 0 1-1.027 1.033c-.477.317-.756.747-.826 1.216-.07.46.07.906.328 1.25.342.454.903.75 1.525.72v.346c-.227.095-.466.272-.724.53-.45.45-.671.98-.498 1.515.16.491.6.807 1.034.987.816.34 2.016.376 2.918-.125l1.385.807c-.162.21-.3.469-.396.738-.127.354-.204.782-.128 1.196.08.434.328.843.81 1.083.457.226 1.062.27 1.81.146.707-.118 1.118-.078 1.372.005.239.078.385.207.541.39l.104.126c.136.17.324.404.55.578.333.255.756.407 1.351.407.815 0 1.48-.51 1.778-1.169.083-.184.139-.382.162-.585l2.091 1.22a.75.75 0 0 0 .808-.033l4.091-2.864c.2-.14.32-.37.32-.614V11.66a.75.75 0 0 0-.494-.705l-4.5-1.636a.75.75 0 0 0-.566.022l-1.319.599V7.023a.75.75 0 0 0-.493-.704l-5.5-2zm-.724 13.008.59.344a.75.75 0 0 0 .808-.033l1.698-1.19v.53a.75.75 0 0 0 .372.648l1.715 1a.89.89 0 0 1 .03.817.965.965 0 0 1-.867.58c-.405 0-.607-.097-.743-.201a1.787 1.787 0 0 1-.314-.333 8.994 8.994 0 0 0-.188-.229c-.219-.255-.51-.532-.99-.689-.465-.151-1.054-.173-1.847-.04-.647.107-1.01.038-1.2-.056a.47.47 0 0 1-.272-.367c-.034-.186-.004-.429.085-.678.047-.13.104-.246.163-.343l.96.24zm-5.8-3.45c.025-.026.05-.05.073-.07a.75.75 0 0 0 .316.364l1.23.718c-.48.081-1.006.027-1.406-.14-.315-.131-.438-.284-.466-.372-.014-.043-.048-.2.253-.5zM2.87 9.58v1.71a.791.791 0 0 1-.725-.317.674.674 0 0 1-.14-.5c.024-.156.12-.351.393-.534.171-.114.329-.235.472-.359zm14.962 8.426v.623l2.917-2.042v-4.402l-3.718-1.352-3.621 1.646.892.446a.75.75 0 0 1 .987-.3l2.086 1.043 1.693-1.015a.75.75 0 0 1 .771 1.286l-1.68 1.01v2.438a.75.75 0 0 1-.327.619zm-6.142-3.347a.762.762 0 0 1 .06-.037v-2.553a.75.75 0 0 1 .439-.683l1.681-.764V7.549L9.153 5.833 4.42 7.983l1.507.754a.75.75 0 0 1 1.029-.385l2.632 1.316 2.146-1.288a.75.75 0 0 1 .772 1.287l-2.136 1.281v3.075a.75.75 0 0 1-.87.74v1.321l.084.05 2.106-1.475zm-6.32-4.136a.25.25 0 0 0-.5 0v1.5a.25.25 0 0 0 .139.224l1 .5a.25.25 0 1 0 .223-.447l-.862-.431v-1.346zm8.793 4.167a.222.222 0 0 0-.445 0v1.333c0 .085.048.162.123.2l.889.444a.222.222 0 0 0 .199-.398l-.766-.383V14.69z"/>
</svg>
