<svg viewBox="0 0 24 25" xmlns="http://www.w3.org/2000/svg">
  <path fill-rule="evenodd" clip-rule="evenodd" d="M7 6.023a3.75 3.75 0 1 1 7.5 0v2a3.75 3.75 0 1 1-7.5 0v-2zm3.36-2.216A2.25 2.25 0 0 0 8.5 6.023v.084c.379-.173.726-.473 1.04-.865.363-.455.639-.984.82-1.435zm1.503.26c-.056.161-.123.333-.2.512.05.047.109.094.18.135.166.098.43.188.836.15a2.26 2.26 0 0 0-.816-.796zM10.711 6.18c.072-.09.142-.183.208-.276.052.036.107.071.163.105.503.295 1.146.438 1.918.328v1.687a2.25 2.25 0 0 1-4.5 0v-.336c.95-.224 1.685-.85 2.21-1.508z"/>
  <path d="M6.75 12.773a2.25 2.25 0 0 0-2.25 2.25v3.25h5.25a.75.75 0 0 1 0 1.5h-6a.75.75 0 0 1-.75-.75v-4a3.75 3.75 0 0 1 3.75-3.75h.5a.75.75 0 0 1 .668.41l.003.006.023.04a3.348 3.348 0 0 0 .617.734c.454.404 1.159.81 2.189.81s1.735-.406 2.19-.81a3.347 3.347 0 0 0 .616-.734l.023-.04.002-.006a.75.75 0 0 1 .669-.41h.5a3.75 3.75 0 0 1 3.75 3.75v.5a.75.75 0 1 1-1.5 0v-.5a2.25 2.25 0 0 0-2.25-2.25h-.086a4.85 4.85 0 0 1-.728.811c-.67.596-1.716 1.19-3.186 1.19s-2.515-.594-3.186-1.19a4.845 4.845 0 0 1-.728-.81H6.75z"/>
  <path fill-rule="evenodd" clip-rule="evenodd" d="M17.288 16.523c-.993 0-1.886.286-2.546.652-.163.09-.32.19-.465.298l-1.18-.758a1.215 1.215 0 0 0-1.21-.057 1.164 1.164 0 0 0-.637 1.032v2.667c0 .44.251.834.637 1.032.383.198.846.176 1.21-.057l1.18-.758c.146.108.303.207.466.298.66.366 1.552.651 2.545.651.907 0 1.788-.174 2.485-.51.617-.297 1.477-.929 1.477-1.99 0-1.06-.86-1.692-1.477-1.99-.697-.335-1.578-.51-2.485-.51zm-2.06 1.527a4.33 4.33 0 0 1 2.06-.527c.735 0 1.412.133 1.933.358a.84.84 0 0 0-1.048.809.84.84 0 0 0 .846.833.84.84 0 0 0 .846-.833.82.82 0 0 0-.286-.625c.403.248.671.577.671.958 0 .453-.378.832-.91 1.089-.535.258-1.26.411-2.052.411a4.328 4.328 0 0 1-2.06-.526 2.882 2.882 0 0 1-.572-.405l-.284-.267-1.816 1.166a.215.215 0 0 1-.211.01.164.164 0 0 1-.095-.144V17.69c0-.052.03-.11.095-.143a.215.215 0 0 1 .211.01l1.816 1.165.284-.267c.15-.14.345-.28.571-.405zm3.945.64a.16.16 0 0 1-.154.167.16.16 0 0 1-.154-.167.16.16 0 0 1 .154-.167.16.16 0 0 1 .154.167z"/>
</svg>
