<svg viewBox="0 0 24 25" xmlns="http://www.w3.org/2000/svg">
  <path fill-rule="evenodd" clip-rule="evenodd" d="M10.75 2.273A3.75 3.75 0 0 0 7 6.023v2a3.75 3.75 0 0 0 7.5 0v-2a3.75 3.75 0 0 0-3.75-3.75zM8.5 6.023a2.25 2.25 0 0 1 1.86-2.216c-.181.451-.457.98-.82 1.435-.314.392-.661.692-1.04.865v-.084zm3.162-1.444c.078-.179.145-.35.201-.511.336.191.617.466.816.796-.406.038-.67-.052-.837-.15a.975.975 0 0 1-.18-.135zm-.743 1.324a6.239 6.239 0 0 1-.208.276c-.526.657-1.262 1.284-2.211 1.508v.336a2.25 2.25 0 0 0 4.5 0V6.336c-.772.11-1.415-.033-1.918-.328a2.498 2.498 0 0 1-.163-.105z"/>
  <path d="M4.5 15.023a2.25 2.25 0 0 1 2.25-2.25h.086c.159.224.398.518.728.811.67.596 1.716 1.19 3.186 1.19s2.515-.594 3.186-1.19c.33-.293.569-.587.728-.81h.086a2.25 2.25 0 0 1 2.25 2.25v.5a.75.75 0 1 0 1.5 0v-.5a3.75 3.75 0 0 0-3.75-3.75h-.5a.75.75 0 0 0-.668.41l-.003.005-.023.04a3.347 3.347 0 0 1-.617.734c-.454.404-1.159.81-2.189.81s-1.735-.406-2.19-.81a3.348 3.348 0 0 1-.616-.734 1.305 1.305 0 0 1-.023-.04l-.003-.006a.75.75 0 0 0-.668-.41h-.5A3.75 3.75 0 0 0 3 15.023v4c0 .415.336.75.75.75h6a.75.75 0 1 0 0-1.5H4.5v-3.25z"/>
  <path fill-rule="evenodd" clip-rule="evenodd" d="M17.288 16.523c-.993 0-1.886.286-2.546.652-.163.09-.32.19-.465.298l-1.18-.758a1.215 1.215 0 0 0-1.21-.057 1.164 1.164 0 0 0-.637 1.032v2.667c0 .44.251.834.637 1.032.383.198.846.176 1.21-.057l1.18-.758c.146.108.303.207.466.298.66.366 1.552.651 2.545.651.907 0 1.788-.174 2.485-.51.617-.297 1.477-.929 1.477-1.99 0-1.06-.86-1.692-1.477-1.99-.697-.335-1.578-.51-2.485-.51zm1.731 1.834a.34.34 0 0 0-.346.333.34.34 0 0 0 .346.333.34.34 0 0 0 .346-.333.34.34 0 0 0-.346-.333z"/>
</svg>
