<svg viewBox="0 0 24 25" xmlns="http://www.w3.org/2000/svg">
  <path fill-rule="evenodd" clip-rule="evenodd" d="M15.441 10.69c.37-.626 1-1.373 1.973-1.867 1.117-.568 2.752-.835 5.086-.11v5.727c0 .031.006.062.017.09a1.849 1.849 0 0 0-.275.16c-.242.17-.406.401-.496.613a1.123 1.123 0 0 0-.079.271l-.603-.009a.213.213 0 0 0-.199.124.25.25 0 0 0 .026.247l.566.808a.25.25 0 0 0 .223.11.213.213 0 0 0 .185-.145l.198-.57c.087.018.183.024.282.019.23-.012.503-.087.745-.256.23-.16.41-.361.514-.567.096-.193.155-.463-.006-.692-.148-.212-.393-.26-.598-.246V8.881l.08.028a.5.5 0 1 0 .341-.94c-2.854-1.037-4.96-.8-6.46-.038a5.876 5.876 0 0 0-2.647 2.759H11.5v-.293l1.18-1.18.179.166a.5.5 0 0 0 .682-.731l-1.142-1.065a.5.5 0 0 0-.682.731l.231.216-.542.542a.75.75 0 0 0-.656-.387h-9a.75.75 0 0 0-.53 1.28l1.983 1.984 4.405 4.983a.75.75 0 0 0 .562.253h11.322a.75.75 0 0 0 .727-.567l1.258-5a.75.75 0 0 0-.727-.932h-5.309zm-5.441 0v-.5H3.56l.5.5H10zm-4.586 1.5.663.75h13.522l.189-.75H5.414zm3.094 3.5L6.96 13.94h12.387l-.44 1.75h-10.4zm14.483-.923c-.052.037-.062.11-.023.167.04.056.113.072.164.035.052-.036.062-.11.023-.166-.04-.056-.113-.072-.164-.036z"/>
</svg>
