<svg viewBox="0 0 24 25" xmlns="http://www.w3.org/2000/svg">
  <path fill-rule="evenodd" clip-rule="evenodd" d="M12.371 7.911a2.869 2.869 0 0 0-.053 1.556c.048.19.114.369.198.522l-.962.704a.42.42 0 0 0-.166.431.494.494 0 0 0 .335.358l1.853.603c.171.055.356.02.482-.094a.42.42 0 0 0 .12-.446l-.366-1.134c.159-.076.318-.181.467-.307.348-.292.691-.734.872-1.29.17-.524.217-1.057.135-1.504-.077-.418-.304-.914-.83-1.085-.526-.17-1.002.097-1.31.39-.329.313-.604.772-.775 1.296zm1.436-.479c-.127-.041-.2-.17-.162-.289.039-.118.173-.18.301-.138.128.041.2.17.162.289-.038.118-.173.18-.3.138z"/>
  <path d="M16.26 19.273a.5.5 0 1 1-1 0 .5.5 0 0 1 1 0zM14.76 21.273a.5.5 0 1 0 0-1 .5.5 0 0 0 0 1z"/>
  <path fill-rule="evenodd" clip-rule="evenodd" d="M15.783 4.079c-1.571-.541-3.462-.572-5.33-.129l.023-.26c.046-.557.056-1.155-.17-1.62a1.32 1.32 0 0 0-.582-.605c-.261-.136-.565-.192-.897-.192-.633 0-1.186.242-1.564.696-.372.447-.534 1.049-.498 1.707.027.484.16 1.01.41 1.558-2.114 1.132-3.722 2.722-4.63 4.45-.942 1.792-1.147 3.786-.268 5.511l.013.025a6.25 6.25 0 0 0-.27.201c-.33.259-.633.559-.822.907a1.48 1.48 0 0 0-.114 1.228c.147.418.475.794.938 1.143.612.461 1.177.708 1.709.761.542.055 1-.095 1.377-.334.074-.046.144-.096.212-.148 1.277 1.732 2.763 3.137 4.529 3.864 2.415.995 5.179.654 8.326-1.444 1.565-1.043 2.622-2.121 3.254-3.261.638-1.152.815-2.32.696-3.482-.117-1.145-.52-2.276-1.016-3.378-.354-.785-.774-1.592-1.191-2.395-.165-.317-.33-.634-.49-.948a.756.756 0 0 0-.08-.124 4.926 4.926 0 0 0-.117-.417c.149-.072.293-.148.429-.227.361-.21.704-.465.94-.784a1.48 1.48 0 0 0 .283-1.2c-.087-.434-.36-.852-.77-1.263-.541-.541-1.066-.864-1.586-.991a2.122 2.122 0 0 0-1.41.139c-.396.179-.729.45-.998.695-.124.113-.227.211-.318.3l-.018.017zm-6.55 2.426c.002-.76.088-1.487.162-2.11.034-.287.065-.552.084-.787.047-.569.02-.909-.073-1.1a.322.322 0 0 0-.147-.157c-.074-.039-.205-.078-.432-.078-.367 0-.627.133-.796.336-.174.21-.293.545-.267 1.012.025.459.192 1.023.553 1.65a.75.75 0 0 1 .146.24c.205.32.459.653.77.994zm-5.36 3.876C4.632 8.938 6.03 7.534 7.95 6.52c.406.542.92 1.09 1.552 1.632.015.012.03.024.045.034a7.934 7.934 0 0 0-.275.982c-.128.6-.36 1.33-.701 2.04a3.245 3.245 0 0 0-.387-.232c-.579-.295-1.19-.448-1.727-.434-.5.012-1.12.185-1.415.766-.296.58-.072 1.183.212 1.595.236.343.58.664.992.928a3.06 3.06 0 0 1-.486.182c-.64.178-1.402.16-2.313-.205l-.114-.045c-.259-1.028-.08-2.202.542-3.383zm3.501 3.938c-.4.29-.848.519-1.346.658a4.154 4.154 0 0 1-1.822.084c.467.653 1.24 1.255 2.401 1.484 1.715.34 4.372-.114 8.25-2.606a7.665 7.665 0 0 0-1.381.15.5.5 0 0 1-.497-.798c1.404-1.79 3.008-2.6 4.365-2.754.433-.944.621-1.851.44-2.615-.2-.834-.882-1.644-2.595-2.149-.832.001-1.851.02-2.769.453-.903.426-1.771 1.288-2.17 3.152a10.446 10.446 0 0 1-.925 2.558c.074.098.14.196.199.293.119.198.212.402.27.6l1.389-.216c.198-.03.39.055.497.222.109.167.116.39.02.578l-1.043 2.046a.583.583 0 0 1-.479.324.495.495 0 0 1-.472-.272l-.64-1.25c-.195.07-.416.114-.645.134-.318.027-.678.01-1.047-.076zm11.804-3.598.04.08a2.462 2.462 0 0 0-.076-.036.693.693 0 0 0 .036-.044zm-6.8-5.56c-.615.044-1.26.155-1.925.337a.752.752 0 0 1-.173.026c-.038.421-.06.853-.045 1.292a4.395 4.395 0 0 1 2.143-1.656zM4.14 17.2c.196.326.397.645.605.956a1.816 1.816 0 0 1-.172.124c-.221.14-.458.213-.743.185-.294-.03-.69-.175-1.207-.565-.384-.29-.54-.518-.596-.676-.047-.135-.037-.262.05-.42.094-.176.278-.376.56-.598.063-.05.13-.1.2-.149a5.26 5.26 0 0 0 1.303 1.143zM18.823 6.48a5.56 5.56 0 0 0 .334-.179c.31-.18.52-.352.638-.513.107-.145.135-.27.107-.41-.032-.163-.156-.412-.496-.752-.458-.458-.829-.657-1.117-.727a1.124 1.124 0 0 0-.76.08c-.251.112-.491.3-.738.523l-.014.013c.851.464 1.558 1.116 2.046 1.965zm-8.549 14.913a7.162 7.162 0 0 1-1.556-.96 13.444 13.444 0 0 0 3.742-.56.5.5 0 1 0 .319-.1 13.295 13.295 0 0 0 3.258-1.583c.45-.299.855-.604 1.223-.91a.5.5 0 1 0 .568-.502c.6-.563 1.077-1.125 1.458-1.663a.5.5 0 1 0 .154-.226 8.977 8.977 0 0 0 .768-1.408c.035-.048.069-.096.1-.143.164.506.276.994.325 1.47.082.805-.018 1.579-.386 2.35a.5.5 0 1 0-.337.593c-.384.58-.942 1.18-1.733 1.798a.5.5 0 1 0-.263.2c-.179.133-.37.267-.57.401-2.531 1.687-4.576 2.003-6.287 1.525a.499.499 0 1 0-.783-.282zm4.375-8.447c.337-.015.67-.014.99-.005.377.011.744.033 1.087.053h.004c.348.02.668.039.963.045.614.014 1.021-.031 1.267-.152a.466.466 0 0 0 .214-.188c.045-.079.086-.208.086-.425 0-.156-.087-.344-.358-.509-.273-.166-.7-.28-1.243-.252-.843.045-1.93.435-3.01 1.433zm-8.322-.66c-.072.141-.236.202-.367.136-.13-.067-.177-.235-.105-.376.072-.142.236-.202.366-.136s.178.235.106.376z"/>
</svg>
