<svg viewBox="0 0 24 25" xmlns="http://www.w3.org/2000/svg">
  <path d="M5.5 8.023v2.5H9v-2.5H5.5z"/>
  <path fill-rule="evenodd" clip-rule="evenodd" d="M4.75 2.273a1 1 0 0 0-.969 1.25H1.75a.75.75 0 0 0-.75.75v12c0 .415.336.75.75.75h2v.5h-2a.75.75 0 0 0-.75.75v4c0 .415.336.75.75.75h20a.75.75 0 0 0 .75-.75v-4a.75.75 0 0 0-.75-.75h-2v-.5h2a.75.75 0 0 0 .75-.75v-12a.75.75 0 0 0-.75-.75h-2.032a1 1 0 1 0-1.936 0H5.718a1.002 1.002 0 0 0-.968-1.25zm13 14.75h-12v.5h12v-.5zm-6.25-12v8.25c0 .415.336.75.75.75h7a.75.75 0 0 0 .75-.75v-8.25h-1.5v7.5H13v-7.5h-1.5zM4 7.273a.75.75 0 0 1 .75-.75h5a.75.75 0 0 1 .75.75v4a.75.75 0 0 1-.75.75h-5a.75.75 0 0 1-.75-.75v-4zm.25 5.5a.5.5 0 0 0 0 1h6a.5.5 0 1 0 0-1h-6zm12.15-7.18a.75.75 0 0 1 .363.998l-.835 1.79h.822a.75.75 0 0 1 .637 1.146l-1.334 2.143a.75.75 0 0 1-1.273-.793l.62-.996h-.65a.75.75 0 0 1-.68-1.068l1.334-2.857a.75.75 0 0 1 .997-.362z"/>
</svg>
