<svg viewBox="0 0 24 25" xmlns="http://www.w3.org/2000/svg">
  <path fill-rule="evenodd" clip-rule="evenodd" d="M11.046 4.302a.75.75 0 0 1 .365-.011l11.5 2.5a.75.75 0 0 1 .03 1.458l-1.152.3.018.005c.914.208 1.644.96 1.692 1.926.05.97-.606 1.787-1.502 2.072l-9.778 3.111c-.44.14-.916.147-1.36.02L1.57 13.015C.679 12.76.002 11.98.002 11.023c0-.63.294-1.184.75-1.562v-.667l-.174-.041a.75.75 0 0 1-.032-1.45l10.5-3zm-9.062 7.272a.77.77 0 0 1-.232-.109v-.883a.77.77 0 0 1 .232-.11l1.768-.507v2.117l-1.768-.508zM19.526 7.59l-.913.238-.861-.196v-.428l1.774.386zm-2.774-.603v.418l-2-.454v-.4l2 .436zm-3-.653-2-.434v.386c.093.01.186.025.277.046l1.723.391v-.389zm-3-.388v.45l-2 .573v-.451l2-.572zm-3 .857v.453l-2 .575v-.456l2-.572zm-3 .858-1.04.296.874.208.166-.047V7.66zm6.52.145L7.558 8.873l3.687.878 4.218-1.1-3.765-.856a.858.858 0 0 0-.424.011zm-6.52 1.94v2.623l2 .574v-2.72l-2-.476zm3 .715v2.769l3 .861v-2.916l-3-.714zm4 .707v3.07l.013-.004 2.987-.95v-2.899l-3 .783zm6 1.16V9.604l-2 .522v2.84l2-.636zm3.79-1.205-2.79.888V9.398l2.723.619c.343.078.516.328.526.539.01.207-.131.463-.459.567z"/>
  <path fill-rule="evenodd" clip-rule="evenodd" d="M23.372 14.69c-.419-1.129-1.689-1.671-2.808-1.301l-9.092 3.004-8.598-2.563c-1.13-.337-2.383.242-2.765 1.384-.39 1.164.309 2.353 1.453 2.694l9.289 2.77c.449.133.93.126 1.376-.02l9.777-3.231c1.136-.376 1.795-1.586 1.368-2.737zm-2.337.123c.41-.136.814.083.93.398.109.292-.038.661-.431.791l-9.778 3.23a.8.8 0 0 1-.476.008l-9.29-2.77c-.4-.119-.557-.485-.459-.78.106-.316.5-.546.915-.422l2.079.62c-.019.219-.023.434-.023.636a.25.25 0 1 0 .5 0c0-.164.003-.328.014-.49l2.519.75a7.027 7.027 0 0 0-.033.74.25.25 0 1 0 .5 0c0-.199.005-.398.021-.594l3.246.968a.749.749 0 0 0 .45-.007l3.778-1.248c.004.127.005.255.005.381a.25.25 0 1 0 .5 0c0-.176-.002-.359-.01-.544l2.5-.827c.007.123.01.247.01.37a.25.25 0 1 0 .5 0c0-.17-.005-.349-.02-.532l2.053-.678z"/>
</svg>
