<svg viewBox="0 0 24 25" xmlns="http://www.w3.org/2000/svg">
  <path d="M14.907 14.349c.027.203.072.406.13.601a2.991 2.991 0 0 1-2.044-.846 1.95 1.95 0 0 1 .809-.067c.424.044.831.183 1.105.312z"/>
  <path fill-rule="evenodd" clip-rule="evenodd" d="M14.749 5.273c-1.649 0-3.387.544-4.76 1.198-.692.33-1.312.697-1.802 1.058-.461.34-.9.74-1.109 1.159a1.36 1.36 0 0 0 .089 1.412c.174.257.414.45.638.591a7.537 7.537 0 0 0-1.33 1.066c-.501-.06-1.064-.275-1.62-.588A7.613 7.613 0 0 1 3.28 9.993a.75.75 0 0 0-.982-.068c-.488.368-.817.921-1.02 1.511a5.623 5.623 0 0 0-.275 1.987c.046 1.4.555 2.97 1.717 4.13a.75.75 0 0 0 1.106-.05l.09-.108c.409-.491.82-.987 1.284-1.334.476-.357.886-.469 1.313-.326.03.01.062.019.094.025.061.055.125.109.191.163-.44.465-.948 1.08-1.244 1.822a.75.75 0 0 0 .299.914c1.744 1.091 3.284 1.273 4.526.968a4.32 4.32 0 0 0 2.332-1.464c.577.072 1.17.11 1.768.11.38 0 .756-.018 1.124-.053l-.753 1.003a.5.5 0 0 0 .4.8c3.129 0 4.467-2.007 4.912-3.169l.179-.098c.752-.422 1.386-.9 1.842-1.38.424-.448.817-1.025.817-1.642 0-.32-.107-.625-.24-.886a4.106 4.106 0 0 0-.554-.796c-.45-.519-1.077-1.051-1.83-1.53a11.39 11.39 0 0 0-2.284-1.111c-.022-.159-.026-.329-.033-.552a22.62 22.62 0 0 0-.014-.409c-.018-.399-.06-.89-.225-1.361a2.488 2.488 0 0 0-1.019-1.315c-.529-.337-1.21-.5-2.052-.5zm1.429 3.641.38-.047-.002-.069c-.003-.1-.005-.195-.01-.28-.016-.366-.052-.677-.142-.935a.992.992 0 0 0-.41-.544c-.214-.137-.587-.266-1.245-.266-1.351 0-2.863.457-4.115 1.053a9.75 9.75 0 0 0-1.557.91c-.36.265-.548.465-.625.571.048.045.132.109.267.181a3.496 3.496 0 0 0 .686.273l.279-.035a12.911 12.911 0 0 1 4.795-.953c.583 0 1.15.05 1.699.141zm-5.311 8.9a13.045 13.045 0 0 1-2.44-.879 10.3 10.3 0 0 1-.349-.177c-.297.302-.591.622-.824.97 1.165.583 2.09.609 2.767.442.325-.08.608-.208.846-.355zm-5.298-3.573a1.94 1.94 0 0 1 .034-1.135 6.794 6.794 0 0 1-1.483-.629 9.364 9.364 0 0 1-1.288-.876 2.54 2.54 0 0 0-.135.322 4.131 4.131 0 0 0-.194 1.451c.027.842.27 1.73.757 2.476a7.25 7.25 0 0 1 1.04-.99c.363-.271.79-.507 1.269-.619zm11.21-2.482a.5.5 0 0 1-.16.689c-.595.37-.792.989-.733 1.656.062.696.394 1.303.676 1.529a.5.5 0 1 1-.624.78 2.29 2.29 0 0 1-.464-.52.497.497 0 0 1-.198.052c-1.707.088-3.002-.929-3.46-1.737a.5.5 0 0 1 .104-.623c.596-.524 1.353-.608 1.985-.542.372.038.727.13 1.03.238a2.498 2.498 0 0 1 1.155-1.682.5.5 0 0 1 .689.16zm2.471 1.264a.5.5 0 1 1-1 0 .5.5 0 0 1 1 0z"/>
</svg>
