<svg viewBox="0 0 24 25" xmlns="http://www.w3.org/2000/svg">
  <path fill-rule="evenodd" clip-rule="evenodd" d="M3.372 6.345a1 1 0 1 0-.743 1.857l10 4c.05.02.1.036.151.047l-.7 2.367c-.164.55.17.996.37 1.21.24.258.573.497.94.713.743.439 1.78.873 2.936 1.215 1.157.343 2.263.544 3.125.58.425.02.835 0 1.176-.086.284-.07.807-.263.97-.813l1.347-4.545a.762.762 0 0 0 .01-.036c.138-.534-.187-.965-.382-1.175-.239-.257-.572-.496-.938-.712-.744-.44-1.78-.873-2.938-1.216-1.156-.342-2.262-.543-3.125-.58-.425-.018-.835 0-1.175.086-.284.072-.808.263-.97.814l-.007.023-.072.242-9.975-3.99zm11.363 5.65a6.553 6.553 0 0 1-.266-.166l-.89 3.007c.105.103.29.245.572.411.61.36 1.527.75 2.601 1.069 1.075.318 2.056.49 2.764.52.326.014.56-.003.704-.033l.89-3.007c-.102 0-.207-.001-.313-.006-.862-.037-1.968-.238-3.125-.58-1.157-.343-2.193-.777-2.937-1.216zm6.127.296.069.003a4.621 4.621 0 0 0-.06-.036c-.61-.36-1.526-.75-2.6-1.068-1.075-.319-2.056-.49-2.764-.52a5.882 5.882 0 0 0-.069-.003l.06.035c.61.36 1.526.75 2.6 1.07 1.075.317 2.056.489 2.764.52zm.807-.06c.01-.007.018-.009.018-.009v.001a.109.109 0 0 1-.018.007zm-6.826-2.036.009.014-.01-.014zm5.498 6.572s-.004.003-.018.008c.011-.006.018-.008.018-.008zm-6.845-2.028s.006.006.011.017a.09.09 0 0 1-.01-.017z"/>
</svg>
