<svg viewBox="0 0 24 25" xmlns="http://www.w3.org/2000/svg">
  <path fill-rule="evenodd" clip-rule="evenodd" d="M2 8.023c0-.966.784-1.75 1.75-1.75h16c.966 0 1.75.784 1.75 1.75v.455a1.75 1.75 0 0 1-1.74 1.75l-.058.386h.23a1.318 1.318 0 0 1 0 2.637h-.626l-.678 4.52a.75.75 0 0 1-.742.639H5.614a.75.75 0 0 1-.742-.639l-.678-4.52h-.626a1.318 1.318 0 0 1 0-2.637h.23l-.058-.386A1.75 1.75 0 0 1 2 8.478v-.455zm1.568 3.591h.38l.096.637h-.476a.318.318 0 1 1 0-.637zm15.888.637h.476a.318.318 0 1 0 0-.637h-.38l-.096.637zM8.955 10.228v1.295a2.795 2.795 0 1 0 5.59 0v-1.295h-1.5v1.295a1.295 1.295 0 1 1-2.59 0v-1.295h-1.5z"/>
</svg>
