<svg viewBox="0 0 24 25" xmlns="http://www.w3.org/2000/svg">
  <path fill-rule="evenodd" clip-rule="evenodd" d="M3.372 6.345a1 1 0 1 0-.743 1.857l10 4c.05.02.101.036.152.048l-.7 2.365c-.164.55.171.997.37 1.211.24.257.573.497.94.713.743.438 1.78.872 2.936 1.215 1.157.342 2.263.543 3.125.58.426.019.835 0 1.176-.086.284-.071.807-.263.97-.814l1.347-4.544.005-.02c.15-.542-.18-.98-.376-1.191-.24-.257-.573-.497-.94-.713-.743-.439-1.78-.872-2.936-1.215-1.157-.343-2.263-.544-3.125-.58-.425-.019-.835 0-1.176.086-.284.071-.807.263-.97.813l-.004.014-.075.252-9.976-3.99zm12.136 4.324a6.095 6.095 0 0 0-.069-.003l.06.036c.61.36 1.526.75 2.6 1.069 1.075.318 2.056.49 2.764.52l.07.002a6.28 6.28 0 0 0-.06-.035c-.61-.36-1.527-.75-2.601-1.069-1.075-.318-2.056-.49-2.764-.52zm6.163 1.56c.01-.005.018-.007.018-.007l-.018.008zm-6.827-2.035.01.017-.01-.017z"/>
</svg>
