<svg viewBox="0 0 24 25" xmlns="http://www.w3.org/2000/svg">
  <path fill-rule="evenodd" clip-rule="evenodd" d="M15 9.023a.75.75 0 0 1 .75-.75h4a.75.75 0 0 1 .75.75v7a.75.75 0 0 1-.75.75h-4a.75.75 0 0 1-.75-.75v-7zm1.5 2.5v3.75H19v-3.75h-2.5zm0-1H19v-.75h-2.5v.75zM3.75 8.273a.75.75 0 0 0-.75.75v2c0 .415.336.75.75.75h3a.75.75 0 0 0 .75-.75v-2a.75.75 0 0 0-.75-.75h-3zm.75 2v-.5H6v.5H4.5z"/>
  <path d="M14.75 11.523a.5.5 0 1 1-1 0 .5.5 0 0 1 1 0zM14.75 13.523a.5.5 0 1 1-1 0 .5.5 0 0 1 1 0zM14.25 16.023a.5.5 0 1 0 0-1 .5.5 0 0 0 0 1z"/>
  <path fill-rule="evenodd" clip-rule="evenodd" d="M9 14.523a2.25 2.25 0 1 1 4.5 0 2.25 2.25 0 0 1-4.5 0zm2.25-.75a.75.75 0 1 0 0 1.5.75.75 0 0 0 0-1.5zM6.25 12.273a2.25 2.25 0 1 0 0 4.5 2.25 2.25 0 0 0 0-4.5zm-.75 2.25a.75.75 0 1 1 1.5 0 .75.75 0 0 1-1.5 0z"/>
  <path fill-rule="evenodd" clip-rule="evenodd" d="M1 8.023c0-.966.784-1.75 1.75-1.75h18c.966 0 1.75.784 1.75 1.75v9a1.75 1.75 0 0 1-1.75 1.75h-18A1.75 1.75 0 0 1 1 17.023v-9zm1.75-.25a.25.25 0 0 0-.25.25v9c0 .139.112.25.25.25h18a.25.25 0 0 0 .25-.25v-9a.25.25 0 0 0-.25-.25h-18z"/>
</svg>
