<svg viewBox="0 0 24 25" xmlns="http://www.w3.org/2000/svg">
  <path d="M12.248 2.463a.75.75 0 0 0-.996 0l-9 8a.75.75 0 1 0 .996 1.121l8.502-7.557 8.502 7.557a.75.75 0 0 0 .996-1.121l-9-8z"/>
  <path fill-rule="evenodd" clip-rule="evenodd" d="m4.262 11.454 7-6a.75.75 0 0 1 .976 0l7 6a.75.75 0 0 1 .262.57v9.25h1.25a.75.75 0 0 1 0 1.5h-18a.75.75 0 1 1 0-1.5H4v-9.25a.75.75 0 0 1 .262-.57zM15 15.774v1.816a.498.498 0 0 0-.25-.067h-6a.498.498 0 0 0-.25.067v-1.817H15zm-2.25 2.75v1a.5.5 0 1 0 1 0v-1h.5v2h-2v-2h.5zm-3 1v-1h-.5v2h2v-2h-.5v1a.5.5 0 1 1-1 0zm5.25-5.25v-.5H8.5v.5H15z"/>
</svg>
