<svg viewBox="0 0 25 25" xmlns="http://www.w3.org/2000/svg">
  <path d="M14.794 5.556c-.552-.729-1.512-1.69-2.685-2.28-1.226-.618-2.776-.865-4.275.121a.75.75 0 0 0 .26 1.361c.272.056.652.24.957.517.194.176.315.348.378.501-.944.283-1.9.705-2.78 1.31-2.24 1.536-3.909 4.195-3.722 8.443l.003.045c.053.506.272 1.1.559 1.674.294.588.688 1.212 1.144 1.786.454.572.985 1.114 1.56 1.521.566.402 1.235.714 1.948.718 1.517.01 2.325-1.3 2.61-2.278.151-.517.206-1.076.12-1.55a1.632 1.632 0 0 0-.316-.732 1.13 1.13 0 0 0-.883-.43c-.211-.002-.44.039-.632.079-.133.027-.284.062-.436.098l-.217.05c-.462.104-.942.198-1.41.206-.464.008-.868-.07-1.201-.27-.276-.164-.557-.443-.786-.94.184-.352.553-.847 1.104-1.288.672-.538 1.554-.948 2.596-.942.503.003 1.263.187 2.272.48.261.075.537.157.822.242.746.223 1.562.467 2.383.672a7.659 7.659 0 0 1-.24-.431c-1.616-3.15-.351-6.208 1.443-7.891.164-.155.335-.299.51-.431a8.255 8.255 0 0 0-1.086-.36z"/>
  <path fill-rule="evenodd" clip-rule="evenodd" d="M16.904 6.426a5.18 5.18 0 0 0-.85.65c-1.558 1.462-2.599 4.052-1.237 6.706.203.395.46.796.782 1.198.743.133 1.493.216 2.219.207a7.404 7.404 0 0 0 1.139-.096c.025.163.07.33.138.494.204.483.605.906 1.258 1.139.339.12.442.321.476.506a.93.93 0 0 1-.048.488.5.5 0 1 0 .871.49c.14-.246.245-.7.16-1.16-.093-.504-.419-1.015-1.124-1.266-.391-.14-.578-.363-.67-.584a1.147 1.147 0 0 1-.084-.36c.422-.15.826-.359 1.2-.637a.75.75 0 0 0 .29-.454.54.54 0 0 1 .196.14.318.318 0 0 1 .065.218c-.002.338.085.632.266.865.179.23.414.352.627.414.402.117.81.048.96.007a.5.5 0 1 0-.262-.965.93.93 0 0 1-.418-.002c-.068-.02-.1-.046-.118-.069-.016-.02-.056-.082-.055-.244a1.315 1.315 0 0 0-.286-.851 1.563 1.563 0 0 0-.616-.447 2.543 2.543 0 0 0-.51-.152 10.935 10.935 0 0 0-1.886-4.004 8.662 8.662 0 0 0-2.483-2.23zm1.302 4.158a.5.5 0 1 1-1-.007.5.5 0 0 1 1 .007z"/>
</svg>
