<svg width="25" height="25" viewBox="0 0 25 25" fill="none" xmlns="http://www.w3.org/2000/svg">
<path d="M16.9534 10.6478C17.2296 10.6494 17.4548 10.4269 17.4564 10.1508C17.4581 9.87466 17.2356 9.64945 16.9595 9.64778C16.6833 9.64611 16.4581 9.86861 16.4565 10.1447C16.4548 10.4209 16.6773 10.6461 16.9534 10.6478Z" fill="#1D1D1D"/>
<path fill-rule="evenodd" clip-rule="evenodd" d="M14.0436 5.12265C13.4916 4.39387 12.5323 3.43256 11.3589 2.84154C10.133 2.22405 8.58256 1.97733 7.08373 2.9635C6.83032 3.13024 6.7023 3.43321 6.75937 3.73114C6.81644 4.02907 7.04735 4.26329 7.34444 4.32458C7.61589 4.38057 7.99562 4.56494 8.30083 4.84136C8.49474 5.01699 8.61576 5.18898 8.67904 5.34276C7.73517 5.62536 6.77957 6.04768 5.89922 6.65168C3.65903 8.18865 1.99043 10.8476 2.17705 15.0951C2.17772 15.1103 2.17885 15.1254 2.18043 15.1405C2.2335 15.646 2.4524 16.2408 2.73904 16.8145C3.03281 17.4024 3.42725 18.0266 3.8829 18.6005C4.33681 19.1721 4.86814 19.7149 5.44244 20.1218C6.00896 20.5232 6.67812 20.835 7.39145 20.8393C8.90806 20.8485 9.71562 19.539 10.0014 18.5611C10.1524 18.0445 10.2073 17.4853 10.1202 17.0123C10.0769 16.7776 9.98825 16.5075 9.80476 16.2799C9.60322 16.03 9.29821 15.8508 8.92167 15.8485C8.71097 15.8472 8.48258 15.8881 8.29022 15.928C8.15747 15.9556 8.00569 15.9908 7.85431 16.026C7.78117 16.0429 7.70811 16.0599 7.63734 16.076C7.17526 16.1808 6.69465 16.2746 6.22695 16.2824C5.76295 16.2901 5.35931 16.2118 5.02604 16.013C4.74999 15.8482 4.46916 15.5693 4.23982 15.0722C4.42391 14.7202 4.79301 14.2256 5.34394 13.7844C6.01593 13.2462 6.89842 12.8362 7.93983 12.8425C8.44276 12.8455 9.20297 13.0289 10.2121 13.3216C10.4734 13.3973 10.7487 13.4795 11.0342 13.5648C11.8031 13.7944 12.6467 14.0463 13.4936 14.2553C14.6597 14.5432 15.8953 14.7672 17.068 14.7539C17.4505 14.7496 17.8322 14.7199 18.2066 14.6571C18.2319 14.8207 18.2763 14.9875 18.3453 15.1515C18.5485 15.6349 18.9501 16.0575 19.6025 16.2902C19.9419 16.4112 20.0448 16.6114 20.0791 16.797C20.0987 16.903 20.0958 17.0136 20.0796 17.1117C20.0717 17.1599 20.0611 17.2014 20.0506 17.2337C20.0454 17.2497 20.0405 17.2623 20.0367 17.2714C20.0333 17.2794 20.0312 17.2834 20.0309 17.2839C19.8954 17.5245 19.9807 17.8293 20.2213 17.9648C20.4619 18.1003 20.7668 18.0151 20.9023 17.7745C21.0412 17.5279 21.1473 17.0743 21.0624 16.6152C20.9691 16.1107 20.6431 15.5996 19.9384 15.3483C19.547 15.2087 19.3601 14.9851 19.2672 14.764C19.2191 14.6497 19.1928 14.527 19.1837 14.4052C19.6058 14.2535 20.0097 14.0454 20.3845 13.7678C20.5361 13.6555 20.6373 13.4924 20.6734 13.313C20.7695 13.3577 20.8323 13.4066 20.8701 13.4536C20.9049 13.4968 20.936 13.5585 20.9353 13.6711C20.9333 14.0091 21.0197 14.3039 21.2008 14.5363C21.3798 14.7659 21.6149 14.888 21.8276 14.9503C22.2299 15.0679 22.6381 14.9987 22.7886 14.9578C23.0551 14.8854 23.2125 14.6107 23.1401 14.3442C23.0677 14.0777 22.793 13.9204 22.5265 13.9928C22.5134 13.9963 22.4478 14.0104 22.3576 14.0145C22.2679 14.0185 22.1797 14.0113 22.1084 13.9905C22.0402 13.9705 22.0075 13.9445 21.9896 13.9215C21.9739 13.9014 21.9343 13.8391 21.9353 13.6771C21.9373 13.3407 21.8322 13.0538 21.6489 12.8263C21.4725 12.6073 21.2446 12.4685 21.0334 12.3789C20.863 12.3066 20.6861 12.2591 20.5225 12.2277C20.2375 11.034 19.6475 9.55013 18.6367 8.22389C17.5958 6.85811 16.0997 5.6516 14.0436 5.12265ZM10.0611 4.75823C9.90251 4.38147 9.6525 4.05956 9.38776 3.80432C9.82189 3.82855 10.2563 3.96569 10.6841 4.1812C10.9503 4.31526 11.2061 4.47671 11.4462 4.65303C10.961 4.66884 10.4733 4.7094 10.0611 4.75823ZM4.4063 12.6135C4.15666 12.8135 3.92857 13.0277 3.72503 13.2472C4.01242 10.5673 5.25985 8.90944 6.74783 7.88856C8.58801 6.62603 10.8818 6.28325 12.4316 6.36811C12.9737 6.41379 13.4759 6.51123 13.941 6.65136C12.769 8.12183 12.0408 10.2283 12.6571 12.4785C12.2635 12.3663 11.8764 12.2507 11.4971 12.1374C11.2033 12.0497 10.9137 11.9632 10.6299 11.8809C9.65814 11.5991 8.69595 11.347 7.9489 11.3425C6.49036 11.3337 5.28351 11.9111 4.4063 12.6135ZM13.8134 12.7892C12.9402 10.5569 13.6907 8.4238 14.9242 7.03422C15.9829 7.54707 16.8075 8.29841 17.4437 9.13313C18.3793 10.3608 18.8967 11.7593 19.1139 12.8005C18.5423 13.1044 17.8502 13.2449 17.0511 13.254C16.0642 13.2651 14.971 13.075 13.853 12.799L13.8134 12.7892ZM5.05763 17.6677L5.03075 17.6337C5.44497 17.7523 5.86193 17.7887 6.25196 17.7822C6.8844 17.7716 7.49262 17.647 7.96935 17.5388C8.05784 17.5187 8.13906 17.4998 8.21501 17.4822L8.21833 17.4814C8.35719 17.4491 8.47894 17.4208 8.59481 17.3968C8.61704 17.3922 8.63796 17.388 8.65762 17.3841C8.67223 17.572 8.64895 17.8416 8.56165 18.1403C8.33688 18.9094 7.88388 19.3423 7.40052 19.3393C7.11388 19.3376 6.74403 19.2057 6.30962 18.8979C5.88298 18.5956 5.45145 18.1637 5.05763 17.6677Z" fill="#1D1D1D"/>
</svg>
