<svg width="25" height="25" viewBox="0 0 25 25" fill="none" xmlns="http://www.w3.org/2000/svg">
<path d="M14.7936 5.55625C14.2416 4.82747 13.2823 3.86615 12.1089 3.27513C10.883 2.65765 9.33256 2.41092 7.83373 3.39709C7.58032 3.56383 7.4523 3.8668 7.50937 4.16473C7.56644 4.46266 7.79735 4.69688 8.09444 4.75817C8.36589 4.81417 8.74562 4.99853 9.05083 5.27496C9.24474 5.45058 9.36576 5.62257 9.42904 5.77635C8.48517 6.05895 7.52957 6.48128 6.64922 7.08527C4.40903 8.62224 2.74043 11.2812 2.92705 15.5287C2.92772 15.5439 2.92885 15.559 2.93043 15.5741C2.9835 16.0796 3.2024 16.6744 3.48904 17.248C3.78281 17.836 4.17725 18.4602 4.6329 19.0341C5.08681 19.6057 5.61814 20.1485 6.19244 20.5554C6.75896 20.9568 7.42812 21.2686 8.14145 21.2729C9.65806 21.2821 10.4656 19.9726 10.7514 18.9947C10.9024 18.4781 10.9573 17.9189 10.8702 17.4459C10.8269 17.2112 10.7383 16.9411 10.5548 16.7135C10.3532 16.4636 10.0482 16.2844 9.67167 16.2821C9.46097 16.2808 9.23258 16.3217 9.04022 16.3616C8.90747 16.3891 8.75569 16.4244 8.60431 16.4595C8.53129 16.4765 8.458 16.4935 8.38734 16.5096C7.92526 16.6144 7.44465 16.7082 6.97695 16.716C6.51295 16.7237 6.10931 16.6454 5.77604 16.4466C5.49999 16.2818 5.21916 16.0029 4.98982 15.5058C5.17391 15.1538 5.54301 14.6592 6.09394 14.218C6.76593 13.6798 7.64842 13.2698 8.68983 13.2761C9.19276 13.2791 9.95297 13.4625 10.9621 13.7552C11.2234 13.8309 11.4987 13.9131 11.7842 13.9984C12.5299 14.2211 13.3459 14.4647 14.1669 14.6699C14.0811 14.5263 14.0013 14.3825 13.9274 14.2385C12.3111 11.0892 13.5755 8.03085 15.3701 6.34758C15.5344 6.19343 15.7046 6.04932 15.8791 5.9166C15.536 5.77543 15.1744 5.65422 14.7936 5.55625Z" fill="#1D1D1D"/>
<path fill-rule="evenodd" clip-rule="evenodd" d="M16.9038 6.42614C16.6177 6.59977 16.3305 6.81781 16.0542 7.07695C14.4961 8.5384 13.4552 11.1284 14.817 13.7819C15.02 14.1774 15.2779 14.5783 15.5987 14.9804C16.3417 15.113 17.0919 15.1957 17.818 15.1875C18.2005 15.1831 18.5822 15.1535 18.9566 15.0907C18.9819 15.2543 19.0263 15.4211 19.0953 15.5851C19.2985 16.0685 19.7001 16.4911 20.3525 16.7238C20.6919 16.8448 20.7948 17.045 20.8291 17.2305C20.8487 17.3366 20.8458 17.4472 20.8296 17.5453C20.8217 17.5935 20.8111 17.635 20.8006 17.6673C20.7954 17.6833 20.7905 17.6959 20.7867 17.705C20.7833 17.713 20.7812 17.717 20.7809 17.7175C20.6454 17.9581 20.7307 18.2629 20.9713 18.3984C21.2119 18.5339 21.5168 18.4487 21.6523 18.2081C21.7912 17.9615 21.8973 17.5079 21.8124 17.0488C21.7191 16.5443 21.3931 16.0332 20.6884 15.7819C20.297 15.6423 20.1101 15.4187 20.0172 15.1976C19.9691 15.0833 19.9428 14.9606 19.9337 14.8388C20.3558 14.6871 20.7597 14.479 21.1345 14.2014C21.2861 14.0891 21.3873 13.926 21.4234 13.7466C21.5195 13.7913 21.5823 13.8402 21.6201 13.8872C21.6549 13.9304 21.686 13.9921 21.6853 14.1047C21.6833 14.4427 21.7697 14.7374 21.9508 14.9699C22.1298 15.1995 22.3649 15.3216 22.5776 15.3838C22.9799 15.5015 23.3881 15.4323 23.5386 15.3914C23.8051 15.319 23.9625 15.0443 23.8901 14.7778C23.8177 14.5113 23.543 14.354 23.2765 14.4264C23.2634 14.4299 23.1978 14.444 23.1076 14.4481C23.0179 14.4521 22.9297 14.4449 22.8584 14.4241C22.7902 14.4041 22.7575 14.3781 22.7396 14.3551C22.7239 14.335 22.6843 14.2727 22.6853 14.1107C22.6873 13.7742 22.5822 13.4874 22.3989 13.2599C22.2225 13.0409 21.9946 12.9021 21.7834 12.8125C21.613 12.7402 21.4361 12.6927 21.2725 12.6613C20.9875 11.4676 20.3975 9.98373 19.3867 8.65749C18.742 7.81155 17.9227 7.02672 16.9038 6.42614ZM18.2063 10.5836C18.2047 10.8597 17.9794 11.0822 17.7033 11.0806C17.4272 11.0789 17.2047 10.8537 17.2063 10.5775C17.208 10.3014 17.4332 10.0789 17.7094 10.0806C17.9855 10.0823 18.208 10.3075 18.2063 10.5836Z" fill="#1D1D1D"/>
</svg>
