<svg viewBox="0 0 24 25" xmlns="http://www.w3.org/2000/svg">
  <path fill-rule="evenodd" clip-rule="evenodd" d="M11.126 2.802c1.177.584 2.142 1.54 2.699 2.265.797.194 1.574.487 2.302.855l-.087.04c-1.585.733-2.825 1.826-3.33 3.258-.512 1.447-.23 3.118.978 4.9l.265.432c.03.405-.018.803-.098 1.143-.1.424-.262.828-.459 1.162-.18.307-.449.657-.81.837a.75.75 0 0 1-.865-.14l-.023-.02a3.264 3.264 0 0 0-.12-.103 6.91 6.91 0 0 0-.557-.408c-.519-.347-1.348-.822-2.55-1.303-1.125-.45-2.393-.572-3.409-.572-.354 0-.671.015-.933.034.525 1.077 1.375 1.598 2.246 1.863.89.27 1.76.262 2.323.257l.197-.001H8.9c.05 0 .263-.001.467.13a.772.772 0 0 1 .289.972c-.072.16-.184.265-.218.297-.052.049-.109.093-.156.129-.115.085-.29.2-.468.317-.084.055-.17.11-.248.163a7.412 7.412 0 0 0-.769.573c-.24.212-.324.346-.34.391a.554.554 0 0 0 .029.212c.034.13.082.254.141.408l.065.167c.04.105.086.234.118.364a1.3 1.3 0 0 1 .03.525.951.951 0 0 1-.445.661 1.223 1.223 0 0 1-.645.163c-.842 0-1.522-.56-2.014-1.139-.516-.606-.968-1.402-1.344-2.205-.747-1.596-1.275-3.415-1.37-4.272a.754.754 0 0 1-.004-.046c-.212-4.246 1.44-6.915 3.671-8.466.983-.682 2.062-1.138 3.113-1.424a2.379 2.379 0 0 0-.405-.341c-.44-.302-.967-.509-1.277-.57a.75.75 0 0 1-.269-1.36c1.493-.995 3.045-.758 4.275-.148zM5.3 13.65c1.078.018 2.45.166 3.729.677 1.298.52 2.219 1.044 2.825 1.447.114.077.216.148.309.215a2.84 2.84 0 0 0 .232-.637c.127-.54.069-.96-.1-1.206a35.328 35.328 0 0 0-1.733-.665 20.42 20.42 0 0 0-1.587-.497 7.95 7.95 0 0 0-.832-.177 3.028 3.028 0 0 0-.378-.033H7.75c-.656 0-1.162.107-1.665.358a4.818 4.818 0 0 0-.802.518H5.3z"/>
  <path fill-rule="evenodd" clip-rule="evenodd" d="m16.46 6.87.725-.337.07.047c1.395.927 2.558 2.17 3.146 3.555.217.262.448.502.682.737l.157.156.002.002c.201.201.41.41.586.608.434.489.94 1.206.634 2.123-.207.62-.664 1.02-1.206 1.25-.52.22-1.135.294-1.764.294-1.248 0-2.789-.295-4.313-.667l-.65-1.06-.007-.01c-1.09-1.603-1.247-2.946-.87-4.015.385-1.089 1.367-2.017 2.809-2.684zm.79 4.154a.5.5 0 1 0 0-1 .5.5 0 0 0 0 1z"/>
</svg>
