<svg viewBox="0 0 25 25" xmlns="http://www.w3.org/2000/svg">
  <path d="M16.953 10.648a.5.5 0 1 0 .006-1 .5.5 0 0 0-.006 1z"/>
  <path fill-rule="evenodd" clip-rule="evenodd" d="M14.044 5.123c-.552-.73-1.512-1.69-2.685-2.281-1.226-.618-2.776-.865-4.275.121a.75.75 0 0 0 .26 1.362c.272.056.652.24.957.516.194.176.315.348.378.502-.944.282-1.9.705-2.78 1.309-2.24 1.537-3.909 4.196-3.722 8.443l.003.045c.053.506.272 1.1.559 1.674.294.588.688 1.213 1.144 1.787.454.571.985 1.114 1.56 1.52.566.402 1.235.714 1.948.718 1.517.01 2.325-1.3 2.61-2.278.151-.517.206-1.076.12-1.549a1.633 1.633 0 0 0-.316-.732 1.13 1.13 0 0 0-.883-.432c-.211 0-.44.04-.632.08a19.97 19.97 0 0 0-.436.098l-.217.05c-.462.105-.942.199-1.41.206-.464.008-.868-.07-1.201-.269-.276-.165-.557-.444-.786-.94.184-.353.553-.847 1.104-1.289.672-.538 1.554-.948 2.596-.942.503.003 1.263.187 2.272.48.261.075.537.158.822.243.77.23 1.613.481 2.46.69 1.166.288 2.401.512 3.574.499a7.391 7.391 0 0 0 1.139-.097c.025.164.07.33.138.495.204.483.605.906 1.258 1.138.339.121.442.321.476.507a.929.929 0 0 1-.048.487.5.5 0 1 0 .871.49c.14-.246.245-.7.16-1.159-.093-.504-.419-1.015-1.124-1.267-.391-.14-.578-.363-.67-.584a1.147 1.147 0 0 1-.084-.359c.422-.151.826-.36 1.2-.637a.75.75 0 0 0 .29-.455.54.54 0 0 1 .196.14.318.318 0 0 1 .065.218c-.002.338.085.633.266.865.179.23.414.352.627.414.402.118.81.049.96.008a.5.5 0 1 0-.262-.965.93.93 0 0 1-.418-.002c-.068-.02-.1-.046-.118-.07-.016-.02-.056-.082-.055-.244a1.315 1.315 0 0 0-.286-.85 1.563 1.563 0 0 0-.616-.448 2.543 2.543 0 0 0-.51-.151 10.935 10.935 0 0 0-1.886-4.004c-1.041-1.366-2.537-2.572-4.593-3.101zm-3.983-.365a2.926 2.926 0 0 0-.673-.954c.434.025.868.162 1.296.377.266.134.522.296.762.472a16.71 16.71 0 0 0-1.385.105zm-5.655 7.856c-.25.2-.477.414-.681.633.287-2.68 1.535-4.338 3.023-5.358 1.84-1.263 4.134-1.606 5.684-1.52a7.36 7.36 0 0 1 1.509.282c-1.172 1.47-1.9 3.577-1.284 5.828-.393-.113-.78-.228-1.16-.342-.294-.087-.583-.174-.867-.256-.972-.282-1.934-.534-2.681-.539-1.459-.008-2.665.57-3.543 1.271zm9.407.175c-.873-2.232-.122-4.365 1.111-5.755 1.059.513 1.884 1.264 2.52 2.1a9.428 9.428 0 0 1 1.67 3.666c-.572.304-1.264.445-2.063.454-.987.011-2.08-.179-3.198-.455l-.04-.01zm-8.755 4.879-.027-.034a4.18 4.18 0 0 0 1.221.148c.632-.01 1.24-.135 1.717-.243l.246-.057h.003a16.197 16.197 0 0 1 .44-.098c.014.188-.01.458-.096.756-.225.77-.678 1.202-1.161 1.2-.287-.002-.657-.134-1.091-.442-.427-.302-.859-.734-1.252-1.23z"/>
</svg>
