<svg viewBox="0 0 24 25" xmlns="http://www.w3.org/2000/svg">
  <path fill-rule="evenodd" clip-rule="evenodd" d="M13.011 10.975c-.64 0-1.216.191-1.638.435a2.406 2.406 0 0 0-.477.353l-1.058-.706a.492.492 0 0 0-.766.41v1.97a.492.492 0 0 0 .766.41l1.058-.706c.132.128.295.248.477.353.422.243.999.435 1.638.435.604 0 1.175-.121 1.613-.34.41-.205.85-.578.85-1.137 0-.56-.44-.933-.85-1.137-.438-.22-1.009-.34-1.613-.34zm.985 1.23a.246.246 0 1 1 .493 0 .246.246 0 0 1-.493 0z"/>
  <path fill-rule="evenodd" clip-rule="evenodd" d="M6.656 12.454a5.37 5.37 0 1 1 10.74 0 5.37 5.37 0 0 1-10.74 0zm5.37-4.478a4.478 4.478 0 1 0 0 8.956 4.478 4.478 0 0 0 0-8.956z"/>
  <path fill-rule="evenodd" clip-rule="evenodd" d="M19.64 6.612c.515-.984.788-1.772.813-2.392.015-.348-.047-.693-.24-.986a1.358 1.358 0 0 0-.777-.558c-.54-.156-1.174-.035-1.698.126a8.58 8.58 0 0 0-1.303.536c-1.118-.46-2.69-.664-4.287-.664-1.683 0-3.495.227-5.008.693-.985-.43-1.76-.644-2.35-.631-.332.007-.666.087-.937.304a1.261 1.261 0 0 0-.455.824c-.076.53.121 1.122.337 1.6.183.407.42.819.662 1.189-.458 1.591-.673 3.962-.673 6.169 0 1.19.062 2.358.19 3.362.1.795.247 1.532.458 2.102-.571.857-.908 1.555-1.009 2.12-.058.325-.049.667.103.976.158.323.426.52.707.623.505.186 1.123.104 1.626-.015a8.67 8.67 0 0 0 1.352-.458c3.39.932 6.356.932 9.746 0 .991.434 1.771.65 2.363.637.331-.007.665-.087.937-.304.282-.225.413-.53.455-.823.076-.53-.122-1.123-.337-1.601a8.801 8.801 0 0 0-.639-1.152c.212-.57.36-1.31.46-2.105.128-1.004.19-2.172.19-3.362 0-2.226-.218-4.619-.685-6.21zm-1.508-2.53c-.446.137-.93.356-1.355.587a.67.67 0 0 1-.62.011c-.845-.422-2.32-.667-4.009-.667-1.67 0-3.442.24-4.835.704a.67.67 0 0 1-.489-.026c-1.067-.485-1.688-.624-2.006-.617a.658.658 0 0 0-.098.008c-.008.14.049.419.235.833.186.413.454.858.725 1.245a.67.67 0 0 1 .086.595c-.458 1.374-.704 3.75-.704 6.067 0 1.148.06 2.258.18 3.193.12.956.295 1.661.488 2.047a.67.67 0 0 1-.05.683c-.68.97-.94 1.567-1 1.896a.691.691 0 0 0-.012.118c.125.03.395.03.82-.071.432-.103.911-.28 1.336-.474a.67.67 0 0 1 .46-.034c3.327.95 6.154.95 9.48 0a.67.67 0 0 1 .462.034c1.067.485 1.687.624 2.006.617a.652.652 0 0 0 .098-.008c.007-.139-.05-.419-.236-.833a8.01 8.01 0 0 0-.724-1.245.67.67 0 0 1-.05-.683c.193-.386.367-1.091.488-2.047.12-.935.18-2.045.18-3.193 0-2.318-.247-4.693-.705-6.066a.67.67 0 0 1 .048-.533c.58-1.064.77-1.708.785-2.058a.475.475 0 0 0-.02-.192.191.191 0 0 0-.03-.011c-.145-.042-.458-.027-.934.12z"/>
</svg>
