<svg viewBox="0 0 24 25" xmlns="http://www.w3.org/2000/svg">
  <path d="M13.827 12.128a.225.225 0 1 1 .45 0 .225.225 0 0 1-.45 0z"/>
  <path fill-rule="evenodd" clip-rule="evenodd" d="M12.024 8.297a4.057 4.057 0 1 0 0 8.114 4.057 4.057 0 0 0 0-8.114zM12.925 11c-.586 0-1.113.176-1.5.399a2.203 2.203 0 0 0-.437.323l-.968-.646a.45.45 0 0 0-.701.375v1.803a.45.45 0 0 0 .7.375l.97-.646c.12.118.27.228.436.324.387.222.914.398 1.5.398.553 0 1.075-.111 1.477-.312.374-.187.777-.529.777-1.04 0-.512-.403-.854-.777-1.041-.402-.2-.924-.312-1.477-.312z"/>
  <path fill-rule="evenodd" clip-rule="evenodd" d="M19.803 4.82c-.024.576-.275 1.3-.74 2.193.426 1.466.624 3.65.624 5.679 0 1.092-.058 2.163-.175 3.085-.09.716-.223 1.386-.413 1.912.21.325.413.682.572 1.036.198.44.386.997.313 1.5-.04.28-.166.577-.44.795-.262.21-.583.286-.895.293-.552.012-1.27-.188-2.17-.58-3.098.848-5.814.848-8.913 0a7.968 7.968 0 0 1-1.228.414c-.462.11-1.044.189-1.524.011-.27-.1-.53-.288-.683-.602-.147-.298-.154-.626-.1-.933.094-.523.402-1.162.916-1.937-.19-.525-.322-1.194-.412-1.909a25.157 25.157 0 0 1-.175-3.085c0-2.01.194-4.172.611-5.637a8.145 8.145 0 0 1-.595-1.073c-.198-.44-.386-.996-.313-1.5.04-.28.166-.577.44-.795.262-.21.583-.286.895-.292.55-.012 1.263.185 2.157.573 1.388-.424 3.044-.63 4.581-.63 1.453 0 2.889.184 3.922.601.37-.184.777-.358 1.177-.48.482-.15 1.077-.265 1.59-.117.282.08.558.247.748.538.185.282.244.612.23.94zM7.065 12.354a4.959 4.959 0 1 1 9.917 0 4.959 4.959 0 0 1-9.917 0z"/>
</svg>
