<svg viewBox="0 0 24 25" xmlns="http://www.w3.org/2000/svg">
  <path fill-rule="evenodd" clip-rule="evenodd" d="M11.046 4.302a.75.75 0 0 1 .365-.011l11.5 2.5a.75.75 0 0 1 .03 1.458l-.189.05v.718c.43.355.718.869.747 1.463.05.97-.606 1.787-1.502 2.072l-9.778 3.111c-.44.14-.916.147-1.36.02L1.57 13.015C.679 12.76.002 11.98.002 11.023c0-.63.294-1.184.75-1.562v-.667l-.174-.041a.75.75 0 0 1-.032-1.45l10.5-3zm10.706 5.835v.884a.773.773 0 0 1-.21.102l-2.79.888V9.398l2.723.619c.11.025.202.067.277.12zm-6 2.828 2-.636V9.603l-2 .522v2.84zm-1-2.58v2.898l-2.987.95-.013.005v-3.07l3-.782zm-7 2.845 3 .861v-2.916l-3-.714v2.769zm-3-.861 2 .574v-2.72l-2-.476v2.622zm-2.768-.795a.77.77 0 0 1-.232-.109v-.883a.77.77 0 0 1 .232-.11l1.768-.507v2.117l-1.768-.508zM19.526 7.59l-.913.238-.861-.196v-.428l1.774.386zm-2.774-.603-2-.435v.399l2 .454v-.418zm-3-.653v.39l-1.723-.392a2.347 2.347 0 0 0-.277-.046V5.9l2 .434zm-6 .47-2 .57v.457l2-.575v-.453zm-4.04 1.153 1.04-.296v.457l-.166.047-.873-.208zm5.04-.988v-.451l2-.572v.45l-2 .573zm2.52.837L7.558 8.873l3.687.878 4.218-1.1-3.765-.856a.858.858 0 0 0-.424.011z"/>
  <path d="M18.211 14.504a2.104 2.104 0 0 0-.174-.28l-2.308.763c.244.662.272 1.402.272 2.036a.25.25 0 1 1-.5 0c0-.657-.037-1.32-.247-1.88l-3.782 1.25-2.926-.872c-.476.523-.545 1.26-.545 2.002a.25.25 0 1 1-.5 0c0-.675.048-1.503.526-2.157l-2.553-.76c-.411.515-.473 1.214-.473 1.917a.25.25 0 1 1-.5 0c0-.645.044-1.43.465-2.07l-2.092-.623c-1.13-.337-2.383.242-2.765 1.384-.39 1.164.309 2.353 1.453 2.694l9.289 2.77c.449.133.93.126 1.376-.02l9.777-3.231c1.136-.376 1.795-1.586 1.368-2.737-.419-1.129-1.689-1.671-2.808-1.301l-2.032.671c.045.07.086.142.123.215.301.582.346 1.204.346 1.748a.25.25 0 1 1-.5 0c0-.523-.045-1.046-.29-1.519z"/>
</svg>
