<svg viewBox="0 0 24 25" xmlns="http://www.w3.org/2000/svg">
  <path d="M7 7.023a3.75 3.75 0 1 1 7.5 0v.518c-.898.123-2.25.982-2.25 2.982h-1.352C9 9.273 8.747 9.117 8.196 9.117c-.55 0-1.076.84-1.196 1.156v-3.25zM12 16.023a2.75 2.75 0 1 1 5.5 0 2.75 2.75 0 0 1-5.5 0z"/>
  <path fill-rule="evenodd" clip-rule="evenodd" d="M16.5 9.023a.75.75 0 0 0-.884-.738c-1.21.22-1.927.933-2.291 1.736A3.83 3.83 0 0 0 13 11.606c-.382.152-.74.351-1.066.592a.752.752 0 0 0-.156-.144l-2.473-1.7a.75.75 0 0 0-1.109.31c-.504 1.122-.323 2.117.133 2.872a3.894 3.894 0 0 0 1.582 1.433c.063.03.127.051.193.063a4.723 4.723 0 0 0-.066.386l-2.52.82a.75.75 0 0 0-.428 1.068c.582 1.082 1.482 1.544 2.358 1.643a3.788 3.788 0 0 0 1.458-.135c.057.079.117.156.179.23a3.612 3.612 0 0 0-.395-.02c-.981 0-1.853.392-2.4 1l-.027.03a2.306 2.306 0 0 0-.513.97h13.88c-.09-.37-.278-.71-.54-1a2.647 2.647 0 0 0-.13-.135c-.55-.53-1.363-.866-2.27-.866-.09 0-.178.004-.265.01.096-.117.186-.238.27-.364l2.571 1.013a.75.75 0 0 0 1.01-.552c.24-1.206-.16-2.135-.774-2.768a3.895 3.895 0 0 0-1.864-1.04.748.748 0 0 0-.192-.019 4.58 4.58 0 0 0-.024-.144.753.753 0 0 0 .132-.092l2.264-1.968a.75.75 0 0 0-.023-1.151c-.959-.77-1.968-.843-2.812-.591-.586.174-1.08.5-1.442.823a4.748 4.748 0 0 0-1.04-.574V9.023zm-.862 10.128a3.251 3.251 0 0 0-.882-6.378h-.012a3.25 3.25 0 0 0-3.218 3.664l.373 1.148a3.259 3.259 0 0 0 1.906 1.549c.28-.072.577-.11.885-.11.331 0 .65.044.948.127z"/>
  <path d="M2.75 11.273h4.447c-.07.401-.111.96-.023 1.5H2.75a.75.75 0 1 1 0-1.5zM7.438 13.273c.312.75.812 1.5 1.312 1.75 0 0-.126.149-.442.292-.188.085-.378.164-.563.24-.67.278-1.275.528-1.495.968-.281.562.5 2.5 2.058 3.25H6.75A4.75 4.75 0 0 1 2 15.023v-1a.75.75 0 0 1 .75-.75h4.688z"/>
</svg>
