<svg width="24" height="24" viewBox="0 0 24 24" fill="none" xmlns="http://www.w3.org/2000/svg">
<path d="M14.7034 2.34382C13.098 1.54111 11.1458 2.19184 10.3431 3.79727L6.34311 11.7973C5.83938 12.8047 5.89322 14.0012 6.48539 14.9593C7.0649 15.897 8.07909 16.4756 9.17786 16.4999L8.54584 17.4479C7.55019 18.9414 7.95376 20.9592 9.44723 21.9549C10.9407 22.9505 12.9585 22.547 13.9542 21.0535L17.9542 15.0535C18.619 14.0562 18.681 12.7739 18.1154 11.7172C17.5499 10.6604 16.4486 10.0007 15.25 10.0007H14.5086L16.1569 6.70416C16.9596 5.09873 16.3089 3.14654 14.7034 2.34382Z" fill="#1D1D1D"/>
</svg>
