<svg viewBox="0 0 24 25" xmlns="http://www.w3.org/2000/svg">
  <path fill-rule="evenodd" clip-rule="evenodd" d="M11.015 3.354c1.053-.203 2.262-.06 3.125.883.194.21.373.465.407.753a.758.758 0 0 1-.096.473.843.843 0 0 1-.312.303c-.21.121-.47.173-.709.198-.25.026-.538.03-.839.018-.775-.027-1.771-.153-2.652-.265l-.048-.006 9.423 6.315c.18.084.351.175.512.274.649.403 1.163.97 1.356 1.716.193.746.018 1.49-.355 2.157-.37.663-.954 1.289-1.67 1.856-1.433 1.135-3.51 2.126-5.885 2.74-2.376.615-4.672.755-6.476.457-.902-.15-1.716-.414-2.36-.813-.65-.403-1.164-.97-1.357-1.716-.193-.746-.018-1.49.355-2.157.082-.148.176-.294.278-.438L7.636 5.318a.75.75 0 0 1 .686-.493l.08-.088c.57-.623 1.568-1.181 2.613-1.383zm-.931 1.373.063.008c.848.108 1.744.222 2.48.248.277.01.513.006.698-.014.044-.004.082-.01.115-.015a1.775 1.775 0 0 0-.037-.042c-.548-.598-1.349-.74-2.198-.576a4.275 4.275 0 0 0-1.121.39zm4.73 6.089-.85-.57-.35.877-1.399-.8.34-1.02-.86-.578-.365 1.093-1.252-.716.421-1.178-.857-.574-.446 1.248-.958-.547-.347.953.964.551-.531 1.486-.994-.496-.344.946.999.5-.291.814-1.035-.414-.342.94.533.213a16.787 16.787 0 0 1 1.965-.904l.07-.2.198.1c.435-.161.886-.31 1.35-.444l-1.208-.604.512-1.433 1.27.726-.422 1.268a19.928 19.928 0 0 1 1.15-.287l.158-.475.575.329c.73-.131 1.442-.216 2.126-.256l.22-.548zm-9.768 6.008c.246-.31.575-.636.99-.964 1.234-.978 3.107-1.89 5.329-2.464 2.222-.575 4.302-.686 5.856-.429.537.089.993.219 1.365.377l.18.122c-.246.306-.631.668-1.176 1.06-1.333.959-3.365 1.908-5.782 2.56-2.416.651-4.633.848-6.24.684a7.532 7.532 0 0 1-.82-.127l.298-.819z"/>
</svg>
