<svg width="24" height="25" viewBox="0 0 24 25" fill="none" xmlns="http://www.w3.org/2000/svg">
<path fill-rule="evenodd" clip-rule="evenodd" d="M7.75 1.27344C6.23122 1.27344 5 2.50465 5 4.02344V9.02344H18.5V4.02344C18.5 2.50465 17.2688 1.27344 15.75 1.27344H7.75ZM8.25 5.02344C7.97386 5.02344 7.75 5.2473 7.75 5.52344V6.52344C7.75 6.79958 7.97386 7.02344 8.25 7.02344C8.52614 7.02344 8.75 6.79958 8.75 6.52344V5.52344C8.75 5.2473 8.52614 5.02344 8.25 5.02344Z" fill="#1D1D1D"/>
<path fill-rule="evenodd" clip-rule="evenodd" d="M5 19.0234V10.0234H18.5V19.0234C18.5 20.5422 17.2688 21.7734 15.75 21.7734V22.0234C15.75 22.5757 15.3023 23.0234 14.75 23.0234C14.1977 23.0234 13.75 22.5757 13.75 22.0234V21.7734H9.75V22.0234C9.75 22.5757 9.30228 23.0234 8.75 23.0234C8.19772 23.0234 7.75 22.5757 7.75 22.0234L7.75 21.7734C6.23122 21.7734 5 20.5422 5 19.0234ZM7.75 13.5234C7.75 13.2473 7.97386 13.0234 8.25 13.0234C8.52614 13.0234 8.75 13.2473 8.75 13.5234V14.5234C8.75 14.7996 8.52614 15.0234 8.25 15.0234C7.97386 15.0234 7.75 14.7996 7.75 14.5234V13.5234Z" fill="#1D1D1D"/>
</svg>
