<svg viewBox="0 0 24 25" xmlns="http://www.w3.org/2000/svg">
  <path fill-rule="evenodd" clip-rule="evenodd" d="M11.75 2.273A4.75 4.75 0 0 0 7 7.023c0 .415.336.75.75.75H8v2.25a3.75 3.75 0 1 0 7.5 0v-2.25h2.25a.75.75 0 0 0 0-1.5h-1.309a4.751 4.751 0 0 0-4.691-4zm2.25 5.5v2.25a2.25 2.25 0 1 1-4.5 0v-2.25H14z"/>
  <path fill-rule="evenodd" clip-rule="evenodd" d="M15.25 13.273a.75.75 0 0 0-.668.41l-.003.006-.023.04a3.347 3.347 0 0 1-.617.734c-.454.404-1.159.81-2.189.81s-1.735-.406-2.19-.81a3.348 3.348 0 0 1-.616-.734 1.305 1.305 0 0 1-.023-.04l-.003-.006a.75.75 0 0 0-.668-.41h-.5A3.75 3.75 0 0 0 4 17.023v4c0 .415.336.75.75.75h14a.75.75 0 0 0 .75-.75v-4a3.75 3.75 0 0 0-3.75-3.75h-.5zM11 16.72v3.553h1.5V16.72a5.162 5.162 0 0 1-1.5 0z"/>
</svg>
