<svg viewBox="0 0 24 25" xmlns="http://www.w3.org/2000/svg">
  <path fill-rule="evenodd" clip-rule="evenodd" d="M1 5.273a1 1 0 0 1 1-1h6a1 1 0 0 1 .25 1.97v2.78H9a.75.75 0 0 1 .75.75v5.5a.75.75 0 0 1-.667.746c-2.354.261-4.069-.113-5.214-.953-1.165-.854-1.619-2.1-1.619-3.293v-5.5H2a1 1 0 0 1-1-1zm10 2.25a.75.75 0 0 0-.75.75v8c0 .415.336.75.75.75h2a.75.75 0 0 0 .75-.75v-8a.75.75 0 0 0-.75-.75h-2zm4 2a.75.75 0 0 0-.75.75v5c0 .415.336.75.75.75h1.25v2.25H16a1 1 0 0 0 0 2h6a1 1 0 1 0 0-2h-.25v-4.5c0-1.644-.702-2.744-1.624-3.408-.884-.637-1.923-.842-2.626-.842H15z"/>
</svg>
