<svg viewBox="0 0 24 25" xmlns="http://www.w3.org/2000/svg">
  <path fill-rule="evenodd" clip-rule="evenodd" d="M16.75 2.273a2.5 2.5 0 0 0-2.5 2.5v2.25h-.5a.75.75 0 0 0-.75.75v1.25h-.5v-.25a.75.75 0 0 0-.75-.75h-1a.75.75 0 0 0-.75.75v.25h-.5v-2.25a.75.75 0 0 0-.75-.75h-4a.75.75 0 0 0-.75.75v3a.754.754 0 0 0 .01.12A4.744 4.744 0 0 0 2 13.773c0 1.603.794 3.02 2.01 3.88a.779.779 0 0 0-.01.085v3.035h-.25a1 1 0 0 0 0 2h18a1 1 0 0 0 0-2H8.5v-2.25H10v.25c0 .415.336.75.75.75h1a.75.75 0 0 0 .75-.75v-.25h6.25a.75.75 0 0 0 .75-.75v-1.25h2.25a.75.75 0 0 0 .75-.75v-4a.75.75 0 0 0-.75-.75H19.5v-1.25a.75.75 0 0 0-.75-.75h-.25v-1.25a.75.75 0 0 0-.75-.75h-.313v-1.75h4.813v-3h-5.5zm-5 14.75h-1v-6.5h1v6.5zM7 18.523H5.5v1.5H7v-1.5zm1-11v1.5H5.5v-1.5H8zm6.5 1.5H17v-.5h-2.5v.5zm6.5 6h-1.5v-2.5H21v2.5zm-15.25-2.75a.5.5 0 0 1 .5-.5h2a.5.5 0 0 1 0 1h-2a.5.5 0 0 1-.5-.5zm.5 1.5a.499.499 0 0 0-.5.5.5.5 0 0 0 .5.5h2a.5.5 0 1 0 0-1h-2z"/>
</svg>
