<svg viewBox="0 0 24 25" xmlns="http://www.w3.org/2000/svg">
  <path fill-rule="evenodd" clip-rule="evenodd" d="M7 15.773a4.75 4.75 0 1 1 9.5 0 4.75 4.75 0 0 1-9.5 0zm6.604-1.853a.5.5 0 0 1 0 .707l-.888.887a1.001 1.001 0 0 1-1.225 1.226l-.387.387a.5.5 0 0 1-.708-.707l.388-.388a1.002 1.002 0 0 1 1.225-1.225l.887-.887a.5.5 0 0 1 .708 0z"/>
  <path fill-rule="evenodd" clip-rule="evenodd" d="M13.289 2.273c-.994 0-1.887.286-2.546.652-.164.09-.32.19-.466.298l-1.18-.758a1.215 1.215 0 0 0-1.21-.057A1.164 1.164 0 0 0 7.25 3.44v2.667c0 .245.078.476.214.666H5.187a.437.437 0 1 0 0 .875H8.25v1h-.875a.75.75 0 0 0-.75.75v1.875c0 .034.002.067.007.1A6.724 6.724 0 0 0 5 15.773c0 1.277.354 2.47.97 3.488A2.751 2.751 0 0 0 4 21.898v.625c0 .415.336.75.75.75h14a.75.75 0 0 0 .75-.75v-.625c0-1.247-.83-2.3-1.97-2.637a6.718 6.718 0 0 0 .97-3.488 6.724 6.724 0 0 0-1.631-4.4.758.758 0 0 0 .006-.1V9.398a.75.75 0 0 0-.75-.75h-.875v-1h3.063a.438.438 0 0 0 0-.875H15.75l.022-.01c.617-.297 1.477-.929 1.477-1.99 0-1.06-.86-1.692-1.477-1.99-.697-.335-1.578-.51-2.484-.51zm-2.25 4.5a4.261 4.261 0 0 1-.763-.45l-.699.45h1.463zm3.806 15a6.767 6.767 0 0 0 1.574-1.125h.331a1.25 1.25 0 0 1 1.244 1.125h-3.149zm-7.764-1.125c.466.447.995.826 1.574 1.125H5.506a1.25 1.25 0 0 1 1.244-1.125h.331zM14.673 4.44a.34.34 0 0 1 .346-.333.34.34 0 0 1 .346.333.34.34 0 0 1-.346.333.34.34 0 0 1-.346-.333zM10 7.648h3.5v1H10v-1zm-3.5 8.125a5.25 5.25 0 1 1 10.5 0 5.25 5.25 0 0 1-10.5 0z"/>
</svg>
