<svg viewBox="0 0 24 25" xmlns="http://www.w3.org/2000/svg">
  <path fill-rule="evenodd" clip-rule="evenodd" d="M14.247 2.273a.75.75 0 0 0 0 1.5h5.5c.34 0 .522.103.612.188a.424.424 0 0 1 0 .625c-.09.085-.272.187-.612.187h-10.5a2.77 2.77 0 0 0-.607.1 8.068 8.068 0 0 0-.887.286 9.775 9.775 0 0 0-2.397 1.33c-.2.151-.397.315-.592.49l5.085 5.086c.447-.281 1.047-.423 1.775-.302a.75.75 0 0 0 .123.01c1.105 0 2.745-.297 4.081-1.236 1.23-.863 2.156-2.24 2.196-4.264h1.723c.66 0 1.229-.21 1.638-.593a1.923 1.923 0 0 0 0-2.813c-.41-.384-.977-.594-1.638-.594h-5.5zM3.744 8.081C2.774 9.34 2.05 11.033 2 13.273h6.937L3.744 8.081zm.63 10.831c-1.243-1.27-1.913-2.81-2.205-4.139h6.64l-4.435 4.14zm1.155.974c1.158.8 2.63 1.36 4.468 1.516v-5.686l-4.468 4.17zm7.624 1.409c-.578.08-1.13.126-1.656.143v-5.565a7.15 7.15 0 0 0 1.52-.072c1.277-.625 2.27-.961 3.032-1.042.788-.084 1.533.098 1.922.77.332.573.244 1.266.107 1.778a5.23 5.23 0 0 1-.148.466h-3.683a.75.75 0 0 0 0 1.5h3.666c.164.486.224.933.15 1.336a1.54 1.54 0 0 1-.543.93 1.927 1.927 0 0 1-.893.386c-.586.103-1.265.015-1.876-.125a11.312 11.312 0 0 1-1.598-.505zm1.094-13.272a.5.5 0 1 1-1 0 .5.5 0 0 1 1 0z"/>
</svg>
