<svg viewBox="0 0 24 25" xmlns="http://www.w3.org/2000/svg">
  <path d="M12.75 15.773a1 1 0 0 1-1.259.967l-.387.387a.5.5 0 0 1-.708-.707l.388-.388a1.002 1.002 0 0 1 1.225-1.225l.887-.887a.5.5 0 0 1 .708.707l-.888.887c.022.083.034.17.034.26z"/>
  <path fill-rule="evenodd" clip-rule="evenodd" d="M7 15.773a4.75 4.75 0 1 1 9.5 0 4.75 4.75 0 0 1-9.5 0zm4.75-3.25a3.25 3.25 0 1 0 0 6.5 3.25 3.25 0 0 0 0-6.5z"/>
  <path fill-rule="evenodd" clip-rule="evenodd" d="M13.289 2.273c-.994 0-1.887.286-2.546.652-.164.09-.32.19-.466.298l-1.18-.758a1.215 1.215 0 0 0-1.21-.057A1.164 1.164 0 0 0 7.25 3.44v2.667c0 .245.078.476.214.666H5.187a.437.437 0 1 0 0 .875H8.25v1h-.875a.75.75 0 0 0-.75.75v1.875c0 .034.002.067.007.1A6.724 6.724 0 0 0 5 15.773c0 1.277.354 2.47.97 3.488A2.751 2.751 0 0 0 4 21.898v.625c0 .415.336.75.75.75h14a.75.75 0 0 0 .75-.75v-.625c0-1.247-.83-2.3-1.97-2.637a6.718 6.718 0 0 0 .97-3.488 6.724 6.724 0 0 0-1.631-4.4.758.758 0 0 0 .006-.1V9.398a.75.75 0 0 0-.75-.75h-.875v-1h3.063a.438.438 0 0 0 0-.875H15.75l.022-.01c.617-.297 1.477-.929 1.477-1.99 0-1.06-.86-1.692-1.477-1.99-.697-.335-1.578-.51-2.484-.51zm-2.25 4.5a4.261 4.261 0 0 1-.763-.45l-.699.45h1.463zm.188-2.973a4.329 4.329 0 0 1 2.062-.527c.734 0 1.411.133 1.933.358a.84.84 0 0 0-1.048.809.84.84 0 0 0 .845.833.84.84 0 0 0 .846-.833.819.819 0 0 0-.286-.625c.403.248.671.577.671.958 0 .453-.378.832-.91 1.089-.535.257-1.26.411-2.051.411a4.329 4.329 0 0 1-2.062-.526 2.883 2.883 0 0 1-.57-.405l-.285-.267L8.556 6.24a.215.215 0 0 1-.211.01.164.164 0 0 1-.095-.144V3.44c0-.052.03-.11.095-.143a.215.215 0 0 1 .211.01l1.816 1.165.284-.267c.15-.14.345-.28.571-.405zm3.946.64a.16.16 0 0 1-.154.167.16.16 0 0 1-.154-.167.16.16 0 0 1 .154-.167.16.16 0 0 1 .154.167zM7.081 20.648H6.75a1.25 1.25 0 0 0-1.244 1.125h3.149a6.768 6.768 0 0 1-1.574-1.125zm7.764 1.125h3.149a1.25 1.25 0 0 0-1.244-1.125h-.331a6.767 6.767 0 0 1-1.574 1.125zM10 7.648h3.5v1H10v-1zm-3.5 8.125a5.25 5.25 0 1 1 10.5 0 5.25 5.25 0 0 1-10.5 0z"/>
</svg>
