<svg viewBox="0 0 24 25" xmlns="http://www.w3.org/2000/svg">
  <path fill-rule="evenodd" clip-rule="evenodd" d="M11.814 3.464c-1.584.47-3.18 1.546-4.365 2.604A11.381 11.381 0 0 0 5.96 7.65a4.81 4.81 0 0 0-.466.734c-.11.222-.218.504-.218.8 0 .545.289.935.613 1.178.163.123.343.216.52.286a8.31 8.31 0 0 0-.73.76c-.484-.071-1.018-.28-1.548-.577a7.613 7.613 0 0 1-1.574-1.177.75.75 0 0 0-.982-.068A1.374 1.374 0 0 0 1 10.666c-.011.36.111.703.211.955.055.139.111.27.167.4.175.41.338.791.406 1.268.02.142.006.344-.049.637-.026.142-.058.29-.095.45l-.006.029c-.033.15-.07.312-.1.473-.12.618-.261 1.613.462 2.336a.75.75 0 0 0 1.107-.05l.09-.109c.408-.491.82-.986 1.283-1.334a2.02 2.02 0 0 1 .626-.337l-.121.101c-.403.34-.91.817-1.151 1.42a.75.75 0 0 0 .216.855c1.613 1.344 2.984 1.636 4.13 1.184.842-.332 1.407-1.024 1.758-1.524.155.042.313.082.473.12-.186.225-.33.514-.356.873-.035.49.159 1.014.575 1.57.428.57.952.9 1.55.785.529-.101.923-.528 1.199-.924.403-.581.719-1.351.926-1.923a12.3 12.3 0 0 0 4.014-.881c-1.035-.81-1.818-1.841-2.135-2.971-.323-1.146-.155-2.37.68-3.496.521-.701 1.29-1.352 2.335-1.93-.698-.596-1.515-1.129-2.419-1.464a.748.748 0 0 0-.068-.308 9.423 9.423 0 0 1-.18-.435l-.004-.011c-.068-.173-.147-.374-.238-.582-.184-.422-.43-.913-.78-1.35-.354-.442-.83-.848-1.473-1.062-.645-.216-1.384-.215-2.22.033zm3.253 3.353c-.049-.123-.1-.248-.155-.375-.163-.373-.347-.725-.576-1.01-.224-.281-.476-.478-.777-.579-.298-.1-.717-.129-1.319.05-1.292.382-2.697 1.306-3.792 2.284a9.906 9.906 0 0 0-1.289 1.364c-.15.2-.256.37-.32.499-.025.05-.04.087-.05.112.073.054.212.117.42.169a3.665 3.665 0 0 0 .757.1c1.557-1.048 3.556-1.99 5.617-2.477a5.263 5.263 0 0 1 1.484-.137zm-6.635 10.1c-.253-.102-.495-.21-.727-.322a9.481 9.481 0 0 1-1.007-.562c-.061.05-.123.099-.183.146l-.126.1c-.15.116-.296.231-.441.353a4.866 4.866 0 0 0-.41.381c1.065.736 1.711.685 2.089.535.313-.123.573-.355.805-.631zM4.846 13.9a1.94 1.94 0 0 1 .033-1.135 6.803 6.803 0 0 1-1.481-.628 8.831 8.831 0 0 1-.461-.278c.136.354.27.77.333 1.219.055.39.003.789-.059 1.121-.032.172-.07.344-.105.503l-.005.022-.056.253c.168-.162.346-.317.532-.457.363-.272.79-.508 1.269-.62zm10.483-.58a4.403 4.403 0 0 0-.667-.301 5.922 5.922 0 0 0-1.02-.29c-.326-.057-.765-.093-1.114.084a.886.886 0 0 0-.45.519c-.076.23-.058.473.002.704.238.914.693 1.559 1.36 1.8.664.238 1.356.011 1.92-.401a.5.5 0 0 0-.592-.807c-.415.304-.756.35-.989.266-.23-.082-.535-.356-.732-1.11a.66.66 0 0 1-.018-.093c.072-.012.213-.017.44.023a5.574 5.574 0 0 1 1.283.43 1.147 1.147 0 0 1 .046.024.5.5 0 1 0 .53-.848z"/>
  <path fill-rule="evenodd" clip-rule="evenodd" d="M22.277 13.394c0-.3-.096-.628-.212-.923a7.268 7.268 0 0 0-.512-1.025 11.557 11.557 0 0 0-1.59-2.079c-1.101.566-1.84 1.184-2.298 1.802-.648.873-.762 1.775-.522 2.629.29 1.029 1.108 2.02 2.211 2.762.09-.047.178-.095.264-.144.753-.422 1.386-.9 1.843-1.38.424-.448.816-1.025.816-1.642zm-2.75-.71a.5.5 0 1 1-1 0 .5.5 0 0 1 1 0z"/>
</svg>
