<svg viewBox="0 0 24 25" xmlns="http://www.w3.org/2000/svg">
  <path d="M14.662 13.02c.284.106.542.224.667.302a.5.5 0 0 1-.53.847l-.013-.007-.033-.017-.063-.03-.047-.023-.1-.043-.052-.022a6.059 6.059 0 0 0-.726-.246c-.1-.026-.2-.049-.296-.066a1.374 1.374 0 0 0-.44-.023.67.67 0 0 0 .018.093c.197.754.503 1.028.732 1.11.233.085.574.038.99-.266a.498.498 0 0 1 .698.108.5.5 0 0 1-.108.699c-.563.412-1.255.64-1.918.4-.668-.24-1.123-.885-1.361-1.799a1.513 1.513 0 0 1-.053-.365 1.078 1.078 0 0 1 .05-.339.887.887 0 0 1 .45-.519 1.35 1.35 0 0 1 .582-.13c.189-.004.374.019.533.046.357.063.725.18 1.02.29zM19.027 13.184a.5.5 0 1 0 0-1 .5.5 0 0 0 0 1z"/>
  <path fill-rule="evenodd" clip-rule="evenodd" d="M11.814 3.464c-1.584.47-3.18 1.546-4.365 2.604A11.383 11.383 0 0 0 5.96 7.65a4.805 4.805 0 0 0-.466.734c-.06.122-.12.263-.162.414a1.453 1.453 0 0 0-.056.386c0 .545.289.935.613 1.178.163.123.343.215.52.286a8.264 8.264 0 0 0-.73.76c-.484-.071-1.018-.28-1.548-.577a7.616 7.616 0 0 1-1.574-1.177.75.75 0 0 0-.982-.068A1.374 1.374 0 0 0 1 10.726l.002.062c.005.096.018.191.037.282.018.089.04.174.066.254.034.108.072.208.107.297.055.138.112.27.167.4.175.41.338.791.406 1.268.02.142.006.344-.049.637-.026.142-.058.29-.094.45l-.007.029c-.033.15-.07.311-.1.473-.12.618-.261 1.613.462 2.336a.748.748 0 0 0 1.107-.05l.09-.109.002-.003c.408-.49.82-.984 1.281-1.33.107-.08.21-.149.311-.204.108-.059.212-.103.315-.134l-.121.1c-.403.34-.91.818-1.15 1.421a.75.75 0 0 0 .215.855c1.613 1.344 2.984 1.636 4.13 1.184.842-.332 1.407-1.024 1.758-1.525.156.043.314.083.473.12-.185.226-.33.515-.355.874-.025.346.064.708.264 1.085a4.027 4.027 0 0 0 .311.485c.428.57.952.9 1.55.785.528-.101.923-.528 1.198-.924.404-.58.72-1.351.927-1.923 2.07-.097 3.93-.727 5.315-1.505.355-.2.684-.41.98-.63a7.006 7.006 0 0 0 .863-.75c.424-.448.816-1.025.816-1.642 0-.14-.02-.284-.054-.429a3.62 3.62 0 0 0-.158-.494 7.257 7.257 0 0 0-.512-1.025 11.583 11.583 0 0 0-1.799-2.29c-.805-.794-1.82-1.548-2.977-1.977a.734.734 0 0 0-.068-.308 4.635 4.635 0 0 1-.077-.18l-.031-.077-.04-.1-.031-.078-.005-.011a18.178 18.178 0 0 0-.238-.582c-.184-.422-.43-.913-.78-1.35-.354-.442-.83-.848-1.473-1.062-.644-.216-1.384-.214-2.22.033zM8.432 16.917c-.253-.102-.495-.21-.727-.322a9.475 9.475 0 0 1-1.007-.562c-.061.05-.123.099-.183.146l-.126.099-.006.004-.219.173-.216.177-.093.08a5.083 5.083 0 0 0-.316.301c1.064.736 1.71.684 2.088.536.18-.072.343-.18.494-.31.11-.096.213-.206.31-.323zm-1.796-4.295a.774.774 0 0 1-.039.05c-.246.353-.32.596-.32.722 0 .131.087.398.462.771.36.358.91.736 1.62 1.08 1.42.688 3.365 1.188 5.397 1.188 1.22 0 2.37-.219 3.38-.556-.718-.903-1.158-1.965-1.104-3.079.056-1.169.65-2.3 1.858-3.284-1.183-.911-2.556-1.433-3.962-1.1-2.01.475-3.98 1.437-5.436 2.478-.728.52-1.307 1.045-1.694 1.516-.047.057-.09.11-.128.163a.679.679 0 0 1-.034.051zm12.021-2.44c-1.137.875-1.585 1.808-1.626 2.664-.044.9.355 1.826 1.088 2.647.27-.122.526-.25.765-.385.654-.367 1.159-.758 1.489-1.105a3.014 3.014 0 0 0 .266-.325c.028-.042.052-.081.072-.118a.64.64 0 0 0 .063-.148l.003-.017v-.002c0-.005-.002-.038-.018-.102a2.212 2.212 0 0 0-.09-.272 5.81 5.81 0 0 0-.407-.809 10.083 10.083 0 0 0-1.561-1.986l-.044-.043zm-15.26 1.956c.219.122.45.24.691.344.255.111.52.208.79.284a1.941 1.941 0 0 0-.033 1.135c-.478.112-.905.348-1.268.62a5.76 5.76 0 0 0-.532.457l.055-.248v-.005l.006-.022.001-.008.007-.031c.023-.102.046-.208.068-.315l.03-.149c.03-.166.059-.348.072-.538.015-.19.014-.388-.014-.584a5.605 5.605 0 0 0-.333-1.218c.149.096.303.189.46.278zm11.67-5.32c-.049-.124-.1-.25-.155-.376a5.81 5.81 0 0 0-.311-.623 3.286 3.286 0 0 0-.265-.388c-.224-.28-.476-.477-.777-.578-.298-.1-.717-.129-1.319.05-1.292.382-2.697 1.306-3.792 2.284a9.915 9.915 0 0 0-1.289 1.364c-.15.2-.256.37-.32.499-.025.05-.04.086-.049.112.072.054.211.117.42.169a3.67 3.67 0 0 0 .756.1c1.557-1.048 3.556-1.99 5.617-2.478a5.26 5.26 0 0 1 1.484-.136z"/>
</svg>
