<svg viewBox="0 0 24 25" xmlns="http://www.w3.org/2000/svg">
  <path d="M7.75 5.523a.5.5 0 0 1 1 0v1a.5.5 0 0 1-1 0v-1zM8.25 13.023a.5.5 0 0 0-.5.5v1a.5.5 0 1 0 1 0v-1a.5.5 0 0 0-.5-.5z"/>
  <path fill-rule="evenodd" clip-rule="evenodd" d="M7.75 1.273A2.75 2.75 0 0 0 5 4.023v15a2.75 2.75 0 0 0 2.75 2.75v.25a1 1 0 0 0 2 0v-.25h4v.25a1 1 0 0 0 2 0v-.25a2.75 2.75 0 0 0 2.75-2.75v-15a2.75 2.75 0 0 0-2.75-2.75h-8zM6.5 4.023c0-.69.56-1.25 1.25-1.25h8c.69 0 1.25.56 1.25 1.25v5H6.5v-5zm0 6v9c0 .69.56 1.25 1.25 1.25h8c.69 0 1.25-.56 1.25-1.25v-9H6.5z"/>
</svg>
