<svg viewBox="0 0 24 25" xmlns="http://www.w3.org/2000/svg">
  <path d="M8.75 13.523a.5.5 0 0 1 1 0v1h1.5a.5.5 0 0 1 0 1h-1.5v1a.5.5 0 1 1-1 0v-1h-1.5a.5.5 0 1 1 0-1h1.5v-1z"/>
  <path fill-rule="evenodd" clip-rule="evenodd" d="M5.75 2.273A1.75 1.75 0 0 0 4 4.023v1c0 .699.409 1.301 1 1.582v1.191l-1.874 2.811a.75.75 0 0 0-.126.416v7.5a2.75 2.75 0 0 0 2.75 2.75h3.946a3.75 3.75 0 0 0 5.139 1.21l5.116-3.136a3.75 3.75 0 1 0-3.919-6.395l-.532.326v-2.255a.75.75 0 0 0-.126-.416L13.5 7.797V6.604c.591-.28 1-.883 1-1.582v-1a1.75 1.75 0 0 0-1.75-1.75h-7zm3.454 16.25a3.755 3.755 0 0 0-.047 1.25H5.75c-.69 0-1.25-.56-1.25-1.25h4.704zm1.712-2.436a3.732 3.732 0 0 0-1.352 1.436H4.5v-6H14v2.675l-3.084 1.89zm2.6-5.564H4.984L6.374 8.44a.75.75 0 0 0 .126-.416v-.75H12v.75a.75.75 0 0 0 .126.416l1.39 2.084zM5.5 4.023a.25.25 0 0 1 .25-.25h7a.25.25 0 0 1 .25.25v1a.25.25 0 0 1-.25.25h-7a.25.25 0 0 1-.25-.25v-1zm6.2 13.343a2.25 2.25 0 1 0 2.351 3.837l2.43-1.489-2.316-3.858-2.465 1.51zm3.318-2.033 2.316 3.859 1.833-1.124a2.25 2.25 0 0 0-2.351-3.837l-1.798 1.102z"/>
</svg>
